<svg version="1.0" xmlns="http://www.w3.org/2000/svg" width="546.667" height="546.667" viewBox="0 0 410 410"><path d="M.2 105.2l.3 50.3 3.5.1c1.9.1 4.4.4 5.5.7 1.1.4 5.8.9 10.5 1.2 7.7.5 13.3 1.5 17.7 3.2 1.2.5 1.4.3.8-.7-.6-1 .2-1.1 4.1-.5 2.7.4 8.3.8 12.4.9 4.2.1 8.2.6 8.9 1 .7.5 8.1 1.2 16.4 1.7 8.4.5 17.2 1 19.7 1.2 5.4.3 14.9 2.7 16.9 4.1 1.1.8 1.3.8.7-.2-1.1-1.9.5-1.4 2 .5 1.2 1.7 1.3 1.6.9-.4-.4-2.2-.3-2.2 3-.8 1.9.7 3.7 1 4 .5.6-.9 7.4-.4 8.4.5.3.3-.8 1.8-2.4 3.3-1.6 1.5-2.2 1.8-1.3.7 1.2-1.4 1.4-2.5.8-3.5-.5-.8-1-1-1-.5 0 .6-1.4 1.2-3.2 1.3-1.8.2-3.9.9-4.8 1.6-.8.7-2.2 1.7-3 2.1-1.2.7-1.3.6-.3-.6s.8-1.5-.7-1.5c-1 0-1.6.4-1.4.8.3.4-.1.8-.8.8-.7 0-2.5.7-4 1.4-2 1.1-2.8 1.2-2.8.3 0-.7-.7-.4-1.4.6-.8 1-1.8 1.9-2.3 2-.4.1-.7.6-.5 1 .1.5-.2.6-.7.2-1.3-.8-6.3 2.4-5.6 3.6.3.5-1.1 1.6-3.2 2.5-2.1.9-3.2 1.8-2.6 2.1 2.4.9 1.3 3.1-3.7 7.3-2.7 2.3-5 3.7-5 3.2s1.2-1.8 2.8-2.7c1.5-1 3.5-2.6 4.5-3.7 1.8-1.8 1.8-1.9-1-1.2-1.5.3-4.4 1.7-6.4 3-1.9 1.3-4.2 2.4-5.1 2.4-.9 0-2.6 1.2-3.7 2.6-1.5 1.9-2.1 2.2-2.1 1.1 0-.9.5-1.9 1-2.2.6-.4.8-1.1.4-1.6-.3-.5-.2-.9.3-.8.4.1 1 0 1.3-.1.3-.1 1.3-.3 2.3-.5 3.6-.7 4.7-1.4 4.1-3-.3-.8-1.1-1.2-1.8-.8-.6.3 0-.5 1.2-1.9 2.2-2.4 2.2-2.7.5-3.1-1.6-.4-1.6-.5 0-.6.9 0 1.7-.5 1.7-1s.8-.8 1.8-.7c.9 0 1.6-.5 1.4-1.2-.1-.8.2-1.1.8-.7.6.4 1.7 0 2.3-.8.7-.8 3.3-2.2 6-3.2 2.6-1 4.7-2 4.7-2.2 0-.3-.7-.2-1.6.1-.8.3-2.5.1-3.6-.5-1.2-.7-1.8-.7-1.4-.1.5.9-4.3 3.4-6.9 3.6-.5.1-1.6.8-2.2 1.7-1.2 1.6-7.3 4.4-7.3 3.4 0-.3 1.7-1.4 3.8-2.5 2-1.2 3-1.9 2.2-1.7-2.7.8-16.3 5-32 9.9-23.4 7.4-24 7.6-23.5 6.7.3-.4.1-1-.5-1.4-.5-.3-1-1.2-1-1.8 0-.7.4-.6 1.1.3.9 1.2 1 1.2.5-.3-.3-1-.6-2.1-.6-2.3 0-.2-1.1-.4-2.4-.4-4.4 0-7.3 4.9-4.5 7.7 2.4 2.4-18.2 4.2-21.9 1.9-.8-.5-1.2.1-1.2 1.4 0 1.9.4 2.1 2.8 1.7l2.7-.6-2.8 1.2-2.7 1.1v56.3C0 295.4.4 316 1 316s1 .5 1 1.1c0 .5-.4.8-1 .4-.5-.3-.9 5-.9 14L0 346h3.5c3.4 0 4.6 1.2 2.4 2.6-.6.3-1.6.1-2.2-.5-2.3-2.3-3.7-1.2-3.7 2.9v4h33.1c27.8 0 33-.2 32-1.4-.6-.7-2.3-1.2-3.9-1-2.7.4-2.7.4-.2-.5 1.4-.5 3.7-.9 5.3-1 3.1-.1 3.4-.9 1.1-2.6-1.6-1.1-1.6-1.2-.1-1.8.9-.3 1.6-.3 1.5.1-.1.4.4 1.7 1.1 3 .7 1.3 1 3 .7 3.8-.4 1.1.8 1.4 6.4 1.4 4.2 0 7-.4 7-1 0-.7.6-.7 1.9 0 2.8 1.5 45.4 1.3 44.5-.2-.5-.7-.2-.8.7-.2 2.4 1.5 3.9 1.3 3.9-.5 0-.9-.4-2.1-.9-2.7-.6-.5-.4-1.4.5-2.2 1.2-1.1 1.5-.8 2.1 2 .4 1.8.6 3.6.5 3.9-.1.4 6 .8 13.5.8 12.9.2 13.5.1 12.2-1.6-1.3-1.7-1.3-1.7 1.3 0 3.2 2 6.2 2.2 5.5.4-.2-.6-1.1-1.2-2-1.2-.8 0-1.9-.4-2.4-.9-.4-.5-.3-.6.4-.2.6.3 1.4.2 1.7-.3.4-.5-.5-.8-1.9-.6-1.5.1-2.4-.2-2.2-.8.4-1.4 5.7-2.1 5.7-.7 0 .5.7 1 1.6 1 .9 0 1.3.5.9 1.2s0 .5.8-.5c1.3-1.6 1.5-1.6 2.1-.1.9 2.2.8 2.6-.6 1.8-.7-.4-.8-.3-.4.5.4.6 1.2.9 1.7.6.5-.4.9-.2.9.4 0 1.5 28 1.3 29.9-.2 1.2-.9 1.3-.9.7 0-.4.8-.2 1.3.8 1.3.8 0 1.8-.5 2.1-1 .4-.7 1.1-.8 1.8-.2 1.4 1.1 21.9 1.3 21.2.2-.2-.4.4-1.5 1.4-2.4 3-2.7 8.8-.9 8.2 2.6 0 .5.4.8 1 .8s.8-.8.5-1.8c-.6-1.6-.5-1.5.8.1 1.2 1.5 2.7 1.8 9.5 1.6 4.5-.1 8.1-.6 8.1-1.2s.5-.6 1.3.1c1.9 1.6 86 1.6 85.1 0-.6-1-.4-1.1.7-.1.7.7 3.8 1.3 7.1 1.3 5 0 5.7-.2 5.2-1.8s-.5-1.6.8 0c1.2 1.4 3.7 1.6 16.6 1.7H394v-2.5c0-2.1.3-2.3 2-1.4 1.1.6 1.7 1.6 1.4 2.5-.7 1.7 3.1 2.1 5.6.5.9-.6 1.7-.5 2.1.2.4.6 1.5.8 2.4.4 1.4-.5 1.5-.9.5-2.1-1.1-1.3-1-1.4.4-.9 1.5.6 1.6-5.3 1.6-75.5 0-52.9-.3-76.1-1.1-76.1-.5 0-.7-.5-.3-1.2.5-.8.2-.9-.9-.5-1 .4-1.7.2-1.7-.4 0-2.2-4.5-6.4-6.4-6.1-1.1.2-1.6 0-1.2-.6.4-.6-.4-2.1-1.6-3.3-1.3-1.2-1.7-1.9-1-1.5.6.4 1.2.2 1.2-.3 0-.6-.4-1.1-1-1.1-.5 0-1-.7-1-1.5 0-1 1-1.5 3.4-1.5h3.4l-1.4 3c-1.7 3.2-1.2 5.2 1 4.4 1.6-.6 2.9-4.4 1.5-4.4-.5 0-.9.6-.9 1.4 0 .8-.4 1.7-.9 2-.5.4-.7-.4-.4-1.6.7-2.6 3.3-6.8 3.3-5.3 0 .6 1.3 1 2.8 1 2.3 0 2.8-.5 3-2.6.2-2.3-.2-2.7-2.5-2.7-1.6 0-3.3.4-3.9.9-.7.6-2.2.5-3.9-.1-1.5-.6-3.1-.7-3.7-.4-.6.4-.8.2-.4-.4.3-.6-.3-1.3-1.4-1.7-1.1-.3-2.8-1.7-3.8-2.9-1-1.3-3.2-2.7-5-3.1-1.8-.3-3-1-2.8-1.3.2-.4-.6-.8-1.7-.9-1.2-.1-4.6-.5-7.4-.9-2.9-.3-5.3-.3-5.3.2 0 1.1-6.7 1-9.3-.1-2.6-1.1-4.2.8-2.3 2.7.8.9 1.2 1.9.8 2.2-.3.4.1.4 1.1 0 .9-.3 1.4-1.1 1-1.8-.3-.6.3-.3 1.5.8 1.2 1 1.9 2.3 1.6 2.7-.3.5.3.6 1.2.2 1.3-.5 1.6-.3 1.1 1-.4 1.1-.1 1.7.8 1.7.8 0 1.2.6 1 1.3-.3.6.4 1.8 1.5 2.4 1.7 1.1 1.8 1 1.3-.5-.6-1.4-.4-1.5.9-.5.8.7 1.7 1.1 2 .8.3-.3 1.3.4 2.3 1.5 1.9 2.1 1.9 2.1-.9 1-1.5-.5-3.4-.6-4.2-.2-1.2.7-1 1.1 1.1 2.2 1.4.7 2.5 1.7 2.5 2.1 0 .8-3.8-1.5-9.8-5.6-1.2-.9-2-2-1.7-2.4.2-.5-.3-1.5-1.3-2.2-1.6-1.3-1.6-1.3-.2.5 1.3 1.7 1.3 1.9 0 1.5-.8-.3-2.8-3-4.3-6.2-1.9-3.9-3.4-5.7-4.7-5.7-1 0-2-.4-2.2-1-.1-.5-1.8-1.2-3.6-1.6-2.9-.6-3.3-.4-4.3 2.5-.6 1.7-1.5 2.9-1.9 2.6-.5-.3-1.2 0-1.6.6-.4.8-.3.9.4.5s1.2-.3 1.2.1c0 .5-1.3 1.7-3 2.6-1.6 1-3 2.3-3 3 0 .8.3.8 1.2-.1.7-.7 1.6-1.2 2.2-1.2.5 0 .6.3.3.7-.7.6 2.1 3.2 3.6 3.3 1.1 0 .8-3.5-.5-4.8-.9-.9-.9-1.2.1-1.2.7 0 1-.4.7-.8-.3-.5.1-.9.8-.9.8 0 1.2.6.9 1.4-.3.7 0 1.3.6 1.3s1 .3 1 .7c-.3 2 .2 3.3 1.4 3.3.7 0 1.3-1.5 1.4-3.5.2-2.7 0-3.3-1.2-2.9-.8.4-1.5.1-1.5-.5 0-1.7 1.9-1.3 5.6 1 3.5 2.1 4.3 3.1 2.2 2.6-.6-.1-1.4.7-1.6 1.8-.3 1.6-.1 1.8.9.7 1.5-1.4 3.3-1.6 2.4-.2-.3.5-.2 1 .4 1 1.6 0 9.3 5.4 8.2 5.8-.6.2-.9.8-.6 1.2.3.5-.4.7-1.6.5-2.2-.4-2.2-.4.1 2 2.4 2.5 3.6 3.3 2.5 1.6-.3-.5.7-1.1 2.2-1.3 3-.4 8.9 2.1 13.9 5.9 3.3 2.5 5.9 3.1 4.8 1-.4-.6.4-.2 1.7 1 1.9 1.9 2.1 2.5 1 3.5-1.1 1.1-1.3 1-.8-.4.3-1 .2-2-.3-2.3-.9-.6-2.6 3.3-2.1 5 .1.5-.6.2-1.7-.8-1-.9-2.2-1.4-2.6-1-.4.5-.7.3-.6-.2.5-2.1 0-3.6-1-3-.6.4-.7 1.1-.4 1.7.4.6.1.9-.7.6-.8-.3-1.3-1.6-1.1-2.9.1-1.6-.6-2.9-2-3.8-2-1.3-2.2-1.2-1.1.1.7.8.9 1.9.5 2.3-.4.5-.1.5.6.1.6-.4 1.2-.2 1.2.3 0 .6-1.6 1.1-3.5 1.1-2.7 0-3.5-.4-3.5-1.8-.1-1.5-.2-1.5-1.5.2-1.4 1.8-1.5 1.8-1.5.2s-.1-1.6-1.6-.2c-1.9 1.9-3.1 2.1-1.6.3.9-1 .5-1.3-1.5-1.2-1.9 0-3.9-1.2-6.5-4-2.1-2.2-3.8-3.6-3.7-3 .4 2.6-.5 2.3-5.8-2.1-3.2-2.7-4.8-3.7-3.6-2.3l2.3 2.5-2.3 2.3c-1.7 1.8-1.8 2.2-.5 1.8 1-.3 2-.2 2.3.3.3.6 1.5 1.5 2.7 2.1 1.5.8 1.9.8 1.3-.1-.5-.8 0-.7 1.4.2 3.1 1.9 3.4 3.9 1 6.2-1.2 1.2-1.8 1.4-1.4.6.6-1.1.2-1-1.2.3-2 1.7-2.1 1.7-2.7-.7-.9-3.6-4.3-5.3-6.4-3.2-1.4 1.3-1.4 1.8-.3 2.8.9.9 1.2.9.7.1-.9-1.6 1.4-2.9 2.4-1.3 1.1 1.8.1 4-1.6 3.3-.8-.3-1.4.1-1.4 1.1 0 2.6-1.7 1.8-1.9-.9-.3-4.9-.4-5.3-1.8-4.8-.7.3-1.3 0-1.3-.7 0-.8.9-1.1 2.4-.8 1.6.3 2.7 0 3-.9.9-2.2.9-2.1-3.4-4.3-2.2-1.1-4-1.6-4-1 0 .5.5 1 1.2 1 .9 0 .9.3 0 1.2-1 1-1.5 1-2.3-.2-.8-1.1-.9-.9-.5 1.2.9 4.1-1 4.3-2.6.2-1.4-3.4-1.6-3.5-3.1-1.9-.9.9-1.7 1.4-1.7 1 0-.3-.9-.1-2 .5s-2 1.5-2 2c0 .6.9 1 2 1s2-.5 2-1.1c0-.5.5-.7 1.2-.3.8.5.5 1.3-1 2.4-1.2 1-1.8 2.1-1.4 2.6.4.5-.1.2-1-.5-1.6-1.2-1.8-1.1-1.8.5s-.2 1.6-.9.4c-.6-.8-.7-1.8-.5-2.2.3-.4.1-.8-.4-.8s-.7-1.3-.4-2.9c.3-2-.3-4-1.7-6-2.5-3.5-2.6-4.2-.5-3.4 1.6.6 1.6-.4-.4-5.6-.3-.9-.1-1.2.5-.8.6.4 1.3.4 1.6 0 .2-.5.2-.2.1.4-.2.7.1 1.3.6 1.3s1.1.6 1.3 1.2c.2.7.3 0 .1-1.6-.4-2.6-.2-2.7 1.4-1.5.9.8 2.3 2.1 3 2.9 1 1.3 1.1 1.2.5-.5-.5-1.8-.3-1.7 2.3.5 2.4 2.2 2.4 1.9-.6-1.6-1.9-2.2-4-3.9-4.7-3.6-.6.2-2.1-.2-3.2-.8-1.7-.9-2.2-.8-2.8.5-.4 1.2-.8 1.3-1.3.5-.7-1.2-3.5-1.8-10.6-2.4-1.6-.1-3.6-.6-4.4-1.1-.9-.6-1.1-.4-.5.5.6 1 .4 1.2-.8.7-1-.4-2 0-2.6 1.1-.9 1.5-1 1.5-1.1-.4 0-2.8-6.8-8.9-12.1-11-2.2-.9-3.8-1.8-3.6-2.1.2-.2 1.6.1 3.1.6 1.4.6 2.6.7 2.6.2 0-1.3 11-2 17.5-1 3.3.5 6.5.9 7 1 1.3.1 13.6-2 15.4-2.7 4.5-1.5-9-5.5-20.1-5.9-3.8-.1-9.5-.8-12.9-1.5-4-.9-6.3-1-6.7-.3-2.1 3.1-11.3 3.4-17.2.4-2.1-1.1-2-.8.8 1.8 1.7 1.7 3.2 3.4 3.2 3.8 0 .4-1.2-.5-2.7-1.9-3.7-3.5-7.3-4.8-13.8-4.8-4.5 0-5.5-.4-6.9-2.5-1.5-2.3-1.9-2.4-3.9-1.1-3.3 2-10.1 3.1-9.1 1.4.4-.8.3-1-.2-.5s-.9 1.4-.9 2c0 .5-1 1.1-2.3 1.2-2.6.2-7.6-5-6.6-6.7.4-.6.2-.8-.4-.5-.5.4-3-.1-5.4-1.2-2.4-1-8.3-2.1-13.3-2.5-8.1-.7-12.7-1.4-20.4-3.2-2-.4-2.2-.7-1-1.6 1.1-.8 1.1-.9-.4-.4-.9.3-3.9-.3-6.5-1.3s-8.8-2.6-13.8-3.7c-8.2-1.6-9.9-1.6-16.4-.4-7.9 1.5-14.7.5-18.2-2.7-1-.9-1.8-1.2-1.8-.8 0 .5-.5.4-1.2-.3s-2-1.2-3.1-1.2-1.5-.4-1.1-1.2c.4-.7.3-.8-.5-.4-.6.4-.9 1.2-.6 1.7.4.5-.6.9-2 .9-3.1 0-8.1 2.4-9.3 4.6-.5.9-3.5 2-7.6 2.7-6.2 1-6.7 1.3-6.3 3.4.2 1.2 0 2-.4 1.7-.5-.3-.9-1.3-1-2.2 0-1.1-.3-1.2-.6-.5-.2.8-2.2 1.3-4.4 1.3-2.4 0-3.8-.4-3.4-1 .4-.6-.6-.7-2.7-.3-3 .6-3.1.5-1.7-.9.8-.9 3.5-1.9 6-2.4 2.4-.4 4.6-.8 4.9-.9.3-.1 2-.5 3.8-.9 2.2-.5 3.8-.4 4.5.3 1.5 1.5 4.9 1.4 7.1-.2 1.6-1.2 1.6-1.4.2-2.6-.9-.7-2.8-1.4-4.3-1.4-1.6-.1-3.1-.6-3.4-1-.4-.5-5.7-1.1-11.8-1.2-6.2-.2-12.8-.9-14.7-1.5-1.9-.7-4.1-.9-4.9-.6-1.9.7-3.1-1.4-1.4-2.5.8-.5 5.5-.9 10.6-.9 5.3 0 9.5-.4 9.8-1.1.4-.5 1.9-.9 3.3-.7 1.5.1 4.9-.1 7.5-.5 3.1-.6 6-.4 8.4.4 3.2 1 3.8.9 4.9-.6.8-1 2-1.5 2.9-1.1.9.3 1.8 0 2.1-.9.9-2.1 4-1.9 6.4.5 1.9 1.9 3.1 2 15.7 1.7 13.3-.4 13.7-.3 15.9 2 1.2 1.2 3 2.3 4 2.3 1.1.1 3 .7 4.3 1.4 1.4.8 3.2 1.1 4 .8 1.4-.5 1.4-.3.3 1-1.1 1.4-.8 1.8 1.9 3.2 3.6 1.8 10.9 2.2 10.9.5 0-.5-.6-.7-1.2-.3-1 .5-1 .3 0-.7.9-1 1.5-1.1 2-.2 1.1 1.7 12.2 1.5 12.2-.2 0-.8.9-1.9 2-2.5 1.1-.6 2-1.5 2-2 0-1.4-4.4-1.2-5.8.2-1.6 1.6-2.8.2-1.3-1.6.9-1.1.9-1.6 0-2.2-.7-.4-1.8 0-2.5 1s-1.8 1.5-2.4 1.1c-.6-.3-2 .4-3.1 1.7l-2.1 2.3 1.6-2.8c1.3-2.2 1.4-3.2.5-4.9-1.1-2.1-1.2-2.1-2.6-.2-1.3 1.8-1.4 1.7-3.8-1.1-1.3-1.7-2.4-3.2-2.5-3.5 0-.4 2.4-.7 5.3-.8 13.6-.4 22.1-1.4 24.3-2.9 2.2-1.4 2.8-1.1 2.5.9-.4 2.7 15.4-3.8 16.6-6.8.3-.8 1-1.1 1.5-.8.6.4 1.3.2 1.7-.3.3-.5 3-2.6 5.9-4.6 2.9-2 6.1-4.5 7-5.6 1.9-2.2 17.1-10.1 19.5-10.1.9 0 1.8.3 2 .7.3.5 2.8.6 5.6.5 2.8-.2 4.8-.8 4.5-1.3-.3-.5.6-1.3 1.9-1.8 1.4-.6 2.8-1.4 3.1-1.9.3-.6 3.3-1 6.7-1.1 5.1 0 5.9.2 5 1.3-1.4 1.7.2 3.1 2.2 2.1.6-.4.4 0-.5.8-1.6 1.2-1.6 1.6-.2 3.6.9 1.2 2.2 2 3 1.7.8-.3 1.4.1 1.4.8 0 .9-.8 1.3-2.2 1-1.8-.3-1.7-.1.5.8 1.5.7 2.7 1.5 2.7 2 0 1.5 3.8.8 4.4-.8.4-1 .2-1.3-.6-.8-.7.5-.9 0-.6-1.4.6-2.3-.7-3.1-1.5-1-.3.7-.6.1-.6-1.4-.1-1.5-.6-3-1.3-3.4-.6-.4-.8-.3-.4.4.3.6.2 1.3-.4 1.7-.6.4-1-.9-1-3.2 0-2.2-.6-4.5-1.2-5.2-1.1-1.1-.9-1.2 1.1-.6 4.3 1.3 8.5 1 12.4-1 3.3-1.7 4.1-1.7 6-.5 5.6 3.5 23.2 12 25 12 1 0 2.1.9 2.4 2 .7 2.5 1.9 2.6 3.2.2 1-1.6 1-1.6 1.1 0 0 1 .6 1.8 1.4 1.8.8 0 1.7.7 2 1.6.5 1.2.1 1.4-1.5.9-1.5-.5-1.9-.4-1.4.5.4.6 1.7.9 3 .6 1.5-.4 2.9.2 4.4 1.8 2.7 2.9 11.7 7 13.7 6.2.8-.3 1.4.1 1.4 1s.9 1.8 2 2.1c2.3.6 2.3 4 .1 3.5-.7-.1-1 .2-.6.8.3.6 1.1.8 1.6.5.5-.4.9 0 .9.8 0 1.4 4.9 4.2 5.8 3.2.8-.8-2.9-4.5-3.9-3.9-.5.3-.9-.2-.9-1 0-2.1 1.2-2 4.3.4 1.6 1.3 2.8 1.6 3.2 1 1-1.6 5.4-1.2 8.6.7 2.8 1.7 3.2 1.7 5.9.1 2.4-1.3 3.1-1.4 4-.3.8 1 .7 1.4-.2 1.7-2.1.7.9 3.7 3.1 3.1 1.1-.3 3 .2 4.3 1.1 1.3.9 4.5 2 7.1 2.5l4.7.8V55H0l.2 50.2zm26.2-14.8c-.3.9 1.1 1.9 4.5 3 2.8.9 5.4 1.6 5.8 1.5 2.1-.3 2.1.3.3 2.1-1.1 1.1-2.6 1.7-3.5 1.4-.8-.4-1.5-.2-1.5.4 0 .6-.3 1.7-.6 2.6-.4 1.2 0 1.6 1.6 1.6 1.2 0 3.3.9 4.7 2 1.4 1.1 2.1 2 1.4 2-.6 0-1.1.5-1.1 1.1 0 .7 1.3.9 3.8.4 2.6-.4 4.3-.1 5.7 1 1.6 1.2 1.7 1.4.3.9-1.3-.4-1.8-.1-1.8 1.1 0 1.5-.7 1.7-5.2 1.1-2.9-.4-5.8-1.3-6.4-2.1-.7-.9-2.8-1.5-5.2-1.5-2.6 0-4.2-.5-4.6-1.5-.4-1.2-1-1.3-2.9-.4s-3.1.7-5.6-.5c-3.7-2-3.9-3.1-.8-4.7 2.8-1.5 3.7-2.8 3.7-5.7 0-1.5-.7-2.6-2-2.9-3.6-1-1.1-2.1 2.7-1.2 5 1.1 5.5 1.1 4.7-.2-.3-.6 0-1.5.7-2 1.9-1.2 1.9-1.1 1.3.5zm41.2 2.7c2.2 1.8 1.7 2.5-2.8 3.8-2.8.9-4.8 1-6.2.3-1.2-.5-3.4-1.5-5-2.1-5-2.1-.4-4 8.2-3.5 2.4.2 5 .8 5.8 1.5zm41.9 15.9c.3.5-.1 1-.9 1-.9 0-1.6-.5-1.6-1 0-.6.4-1 .9-1 .6 0 1.3.4 1.6 1zm-101 10c.4.6-.7 1-2.4 1s-3.1-.5-3.1-1c0-.6 1.1-1 2.4-1 1.4 0 2.8.4 3.1 1zm87 19.9c.3.5 0 1.3-.6 1.7-.7.4-.9.3-.5-.4.3-.5 0-1.3-.6-1.5-.9-.4-1-.6-.1-.6.6-.1 1.4.3 1.8.8zm62.5.1c0 .5-.5 1-1.1 1-.5 0-.7-.5-.4-1 .3-.6.8-1 1.1-1 .2 0 .4.4.4 1zm19.9 6.4c.1.5-.7.2-1.6-.5-1.5-1.2-1.6-1.2-1 .3.3 1 0 2.9-.8 4.4l-1.4 2.7-.6-2.6c-.4-1.5-1.2-2.7-1.7-2.7-.6 0-.8-.6-.5-1.4.3-.8.1-1.7-.6-2-.7-.2-.4-.5.6-.5.9-.1 1.7.6 1.7 1.4 0 2.3 1.5 1.8 3-1.1 1.3-2.3 1.5-2.4 2.1-.7.4 1 .8 2.2.8 2.7zm-16.5-1.4c-1 .4-2.3.5-2.8.2s-.1-.9 1-1.2c1-.4 2.3-.5 2.8-.2s.1.9-1 1.2zm22.1.9c-.3 1.2-1.1 1.9-1.6 1.6-.5-.4-.9-.2-.9.3 0 .6-.6 1.2-1.4 1.5-1.1.5-1.1 0 .2-2.3.9-1.6 2-2.6 2.4-2.4.5.3.8 0 .8-.7s.3-1 .6-.6c.3.3.3 1.5-.1 2.6zm-81.5 1.5c0 1.7-1.4 2.9-2.3 2-.8-.8.3-3.4 1.4-3.4.5 0 .9.6.9 1.4zm60.7 1.9c0 .7-.9 1.4-2 1.4-1.9.2-1.9.2-.1-1.2 1.1-.8 1.9-1.5 2-1.5 0 0 .1.6.1 1.3zm-61.2 3.5c-.3.3-1.1 0-1.8-.7-.9-1-.8-1.1.6-.5 1 .3 1.5.9 1.2 1.2zm66.8 5.2c.3 1.1.3 2 .1 2-.2 0-.8-.9-1.4-2-.6-1.1-.7-2-.2-2 .6 0 1.2.9 1.5 2zm52 .7c-.3.7-.6 1.3-.8 1.3-.2 0-.5-.6-.8-1.3-.3-.8.1-1.4.8-1.4.7 0 1.1.6.8 1.4zm-2.7.5c.5.8.2.9-1.1.4-1.4-.5-1.5-.3-.7.6.5.7 1.1 3.1 1.3 5.3.1 2.2.9 4.8 1.7 5.7.7.9 1.2 2.5.9 3.5-.4 1.4-.5 1.3-.6-.5 0-1.2-.8-2.5-1.6-2.8-.8-.4-1.5-1.3-1.5-2.1s-.4-1.2-.9-.8c-.9.5-2.4-2.4-2.6-5-.1-1.4 2.5-5.5 3.6-5.5.4 0 1.1.5 1.5 1.2zm48.4 1.9c0 .6-.4.7-1 .4-.5-.3-1-1.1-1-1.6 0-.6.5-.7 1-.4.6.3 1 1.1 1 1.6zm-45.2 2.4c-.3.3-.9-.2-1.2-1.2-.6-1.4-.5-1.5.5-.6.7.7 1 1.5.7 1.8zm20.2 4.8c0 .4-1.8-.9-4-2.9-2.2-2.1-4-3.9-4-4.1 0-.8 8 6.2 8 7zm29.4-1.3c-.6.6-1-.2-1.1-2.3-.2-3-.1-3.1.9-.9.7 1.4.8 2.6.2 3.2zm-132.7 2.6c.1 2.5 0 2.6-.4.4-.3-1.4-1-2.9-1.7-3.3-.7-.6-.6-.7.4-.4.8.2 1.6 1.6 1.7 3.3zm137.3-2.1c.7.8.9 1.5.6 1.5-.4 0-1.4-.7-2.2-1.5-.9-.8-1.1-1.5-.6-1.5.5 0 1.5.7 2.2 1.5zm77.1 3.2c1.3 1.6 1.2 1.7-.3.4-1.7-1.3-2.2-2.1-1.4-2.1.2 0 1 .8 1.7 1.7zm-44.4 3.5c-.3.8-.6.5-.6-.6-.1-1.1.2-1.7.5-1.3.3.3.4 1.2.1 1.9zm-48 1c-.3.8-.6.5-.6-.6-.1-1.1.2-1.7.5-1.3.3.3.4 1.2.1 1.9zm35.9.3c-2 1.5-2.9 5.2-1.5 6.1.4.2 1.4-.3 2.3-1.1 1.3-1.3 1.5-1.2 1.4 1.5-.1 2.7-1.8 4.5-1.8 1.9 0-.7-1-.9-2.5-.7-1.4.3-2.5.1-2.5-.3 0-.5.5-.9 1.1-.9.5 0 .7-.5.4-1-.4-.6-1.1-.8-1.6-.5-.5.4-.9.1-.9-.5 0-.7.7-.9 1.6-.6 1.2.4 1.5.2 1.1-.9-.4-.8.3-2.1 1.6-3 2.7-1.9 3.8-1.9 1.3 0zm-177.9 2c0 .8-.4 1.2-.9.9-.5-.4-2 .4-3.4 1.7-1.3 1.2-2.4 1.9-2.4 1.5 0-.5-1.1-.1-2.4.8-1.6 1-2.7 1.2-3.1.6-.4-.6-1.1-.8-1.6-.4-.6.4-.6 1 0 1.8.8.9.7 1.3-.3 1.3-1.7 0-1.5-2.3.3-4 1.1-.9 1.4-.9 1.8 0 .3.9 2 .1 5-2.2 4.9-3.8 7-4.4 7-2zm183.5.7c-.7.7-1.2.8-1.2.2 0-1.4 1.2-2.6 1.9-1.9.2.3-.1 1.1-.7 1.7zm4.8 0c0 .5.5.6 1 .3.6-.4.8-1.1.5-1.6-.3-.5.1-.6.9-.3 1 .4 1.3 1.6 1 3.7-.2 1.7.2 3.7.8 4.5 1 1.1.8 1.8-.7 3.1-2.1 1.7-2.5 3.4-1.2 4.7 1 1 .9 2.4-.2 2.4-.8 0-2.4-3.6-2.3-5 0-.3-.9-.6-2.1-.7-1.2 0-1.6.1-.9.4.6.3 1.2 1.3 1.2 2.4 0 1 .6 1.9 1.3 1.9.9 0 .8.3-.2.9-.7.5-2.2.6-3.2.4-2.7-.7-2.4.2.7 2.2 1.5.9 2.4 1.2 2 .7-.3-.6-.1-1.4.6-1.8.7-.4 1-.4.6.1-.4.4-.1 2.3.7 4.2 1.7 4.1 1.9 5.3.5 5.3-.5 0-.7-.7-.4-1.5.4-1 0-1.5-1.4-1.5-2.4 0-4.8-2.5-3.2-3.5.6-.4.2-1.3-1.2-2.5l-2.3-1.9 2.5-1c1.4-.5 1.9-1 1.1-1-1-.1-1.2-.9-.7-3.2.3-1.7.1-4-.6-5.2-2.6-4.7-1.3-5.9 2.4-2.5 1.9 1.9 2.5 4.4.8 3.3-.6-.3-.7.1-.4.9.3.9 1 1.3 1.5 1 1.3-.7 1.1-3.8-.2-5.1-1.8-1.8-2-6.3-.3-5.6.8.3 1.4.9 1.4 1.5zm-170.2 3c-.5 2.3-1 4.3-1.1 4.3-.1.1-1.4.9-2.9 1.8s-3.3 1.7-3.9 1.7c-1.7 0-7.1 5.9-6.4 7 .3.6.2 1-.2 1-1.2 0-1.5 4.8-.4 6.9.7 1.3.5 1.7-.7 1.7-1.4 0-1.7-.9-1.6-4.3.1-2.4.8-5.1 1.5-6 .8-.9 1.2-1.7 1-1.7-.2-.1-.1-1.1.3-2.4.4-1.2 1.2-1.9 1.8-1.6.6.4.8.3.5-.3-.6-1 6.1-4.8 7.8-4.4.6.1.5-.3-.2-1-1-1-1.5-.9-2.8.1-.8.7-1.5.9-1.5.5s-.7-.2-1.5.5c-.9.7-1.8 1-2.1.7-.3-.3 1.6-2.1 4.3-4.2 4.2-3.2 4.9-3.4 5.9-2s1.2 1.3 1.7-.5c1-3.9 1.5-2 .5 2.2zm101.9 0c-.3.7-.5.2-.5-1.2s.2-1.9.5-1.3c.2.7.2 1.9 0 2.5zm-112.8-.5c-2.2 2.8-4.2 6.6-3 5.8.6-.3 1.1-.2 1.1.4 0 1.2-4.9 5.1-6.5 5.1-.7 0-1.8.7-2.5 1.5-.7.9-1.5 1.3-1.8 1-.3-.3 1-2.2 2.9-4.1 2.8-3 2.9-3.4.8-2-1.4.9-2.9 1.3-3.2.9-.4-.3-.7-.1-.7.5 0 1-4.3 3-4.6 2.1-.1-.2-1.1.5-2.3 1.5-1.2 1.1-2.3 1.7-2.5 1.5-.3-.2 1.2-1.5 3.2-2.8 2-1.3 4.9-3.2 6.4-4.3 1.5-1 3.1-1.8 3.6-1.8s1.7-.9 2.7-2c1-1.1 2.4-2 3-2 .7 0 1.8-.7 2.5-1.5s1.5-1.5 1.8-1.5c.3 0-.1.8-.9 1.7zm269.4 1.3c-.3 1.2-.8 1.9-1.1 1.6-.5-.6.5-3.6 1.2-3.6.2 0 .2.9-.1 2zm-220.3-.6c0 .2-.8 1-1.7 1.7-1.6 1.3-1.7 1.2-.4-.4 1.3-1.6 2.1-2.1 2.1-1.3zm79.1 1c-1.2 1.5-5.4 1.8-4.5.4.3-.4 1.1-.5 1.8-.2.8.3 1.7.1 2.1-.5.3-.6.9-1.1 1.2-1.1.3 0 0 .6-.6 1.4zm12.4.5c.3.5.1 1.2-.5 1.6-.5.3-1-.1-1-.9 0-1.8.6-2.1 1.5-.7zM79 183.4c0 .2-.8 1-1.7 1.7-1.6 1.3-1.7 1.2-.4-.4 1.3-1.6 2.1-2.1 2.1-1.3zm296.1 1.3c1.3 1.6 1.2 1.7-.3.4-1-.7-1.8-1.5-1.8-1.7 0-.8.8-.3 2.1 1.3zM146 185c0 .5-.2 1-.4 1-.3 0-.8-.5-1.1-1-.3-.6-.1-1 .4-1 .6 0 1.1.4 1.1 1zm-76 .4c0 .2-.7.7-1.6 1-.8.3-1.2.2-.9-.4.6-1 2.5-1.4 2.5-.6zm11.6 1.1c-.1.8-1.1 2.2-2.2 3-1.8 1.5-1.8 1.5 0 .8 1.4-.5 1.7-.3 1.1.6-.5.9-1.9 1.1-4 .8-2.5-.4-3.8-.1-5.1 1.4-.9 1-2.2 1.9-2.7 1.9-.6 0 .1-1.3 1.6-2.8 2.5-2.6 6.4-4.1 5.1-2-.3.4 0 .8.5.8.6 0 1.1-.5 1.1-1.2 0-1.3 2.9-4.8 4.1-4.8.4 0 .6.7.5 1.5zm178.7 1.6c.3 1.2 1.2 1.9 1.9 1.7.7-.3 1.9.7 2.6 2.1.7 1.4 1 1.8.8.9-.8-2.8 1.3-3.2 3.5-.7 1 1.2 2.2 1.9 2.6 1.5.4-.3-.2-1.3-1.3-2.2-1.8-1.5-1.8-1.5.6-.9 1.4.3 3.2.8 4 1 .8.2 1.8.4 2.3.4.4.1.7.5.7 1.1 0 .5-1.4 1-3.1 1-2.4 0-3 .4-2.5 1.6.4 1 .2 1.3-.7.7-1.7-1.1-11.7-1.4-11.7-.3 0 .9-3.5.6-6.2-.5-1-.4-1.8-1.2-1.8-1.9 0-.6-1.5-1.7-3.2-2.4-2.6-1-3-1.4-1.8-2.2.8-.5 1.7-.7 2.1-.4.4.2 2.6.6 5 .9 2.4.3 4.7 1.1 5.1 1.8 1.2 1.9 1-1-.2-3.4-.6-1.1-.7-1.9-.2-1.9.6 0 1.2.9 1.5 2.1zm4.7-1.7c0 .3-.4.8-1 1.1-.5.3-1 .1-1-.4 0-.6.5-1.1 1-1.1.6 0 1 .2 1 .4zm78.5.6c.3.5.2 1-.4 1-.5 0-1.3-.5-1.6-1-.3-.6-.2-1 .4-1 .5 0 1.3.4 1.6 1zm-271.5.4c0 .2-.8 1-1.7 1.7-1.6 1.3-1.7 1.2-.4-.4 1.3-1.6 2.1-2.1 2.1-1.3zm33.9 1.3c-.6.7-1.5 1-2 .7-1.3-.8-.3-2.1 1.5-2.1 1.2 0 1.3.4.5 1.4zm247 1.7c-.3.3-1.1-.5-1.8-1.7-1.3-2.1-1.2-2.1.5-.5 1 1 1.6 2 1.3 2.2zm-59.2-.2c-.3.8-.6.5-.6-.6-.1-1.1.2-1.7.5-1.3.3.3.4 1.2.1 1.9zm86.7 1c3 2.7.5 2.1-2.9-.7-2.1-1.7-2.4-2.3-1-1.8 1.1.4 2.9 1.5 3.9 2.5zm12.3-1.5c.3.7-.3.9-1.7.6-2.8-.8-3.4-2-.8-1.9 1.2 0 2.3.6 2.5 1.3zm-326.8 1.9c-.6.8-1.8 1.4-2.6 1.4s-2.1.7-2.9 1.5c-1.9 1.9-1.3 1.9 3 .1 2.7-1.1 3.3-1.1 3.3 0 0 .8-1.1 2.4-2.4 3.6-1.9 1.8-2.6 2-3.2.9-.6-.9-1.8-1.1-3.5-.7-4.7 1.2-4.8-.5-.3-3.4 2.4-1.5 5.4-3.1 6.6-3.5 1.2-.3 1.8-1.1 1.5-1.7-.4-.7-.2-.8.5-.4.9.6.9 1.1 0 2.2zm78.1.4c-.6 1.1-1.5 1.8-2.1 1.4-.6-.4-.6-1.1.2-2 1.7-2.1 3.1-1.7 1.9.6zm181 .5c0 .8-1 1.9-2.2 2.5-1.9.9-2.1.9-.8-.2.9-.7 1.4-2.1 1.2-3.2-.2-1.1 0-1.6.7-1.2.6.4 1.1 1.4 1.1 2.1zm-266-1c0 .2-1 1-2.2 1.6-2.1 1.1-2.2 1.1-.9-.4 1.3-1.6 3.1-2.3 3.1-1.2zM47.5 195c-1.9 2.1-3.5 2.6-3.5 1.2 0-.5 1-1.4 2.3-2 3.1-1.5 3.2-1.4 1.2.8zm48.5-.5c0 .2-1 .9-2.2 1.5-2.2 1.1-2.2 1-.4-.4 2.1-1.7 2.6-1.9 2.6-1.1zm12.5.4c.3.5 0 1.3-.6 1.7-.7.4-.9.3-.5-.4.3-.5 0-1.3-.6-1.5-.9-.4-1-.6-.1-.6.6-.1 1.4.3 1.8.8zm184.8 1.4c-.3.6-.1.7.6.3 1.3-.9 5.1.2 5.1 1.4 0 .5-.9 1.2-2 1.5-1.6.5-1.9 1.2-1.4 2.8.6 1.9.5 2-.9.8-.9-.7-1.4-1.7-1.1-2.2.3-.5.2-.8-.3-.7-1.4.5-5.5-2.9-4.4-3.7.6-.3 1.6-.3 2.3.1.7.5.9.2.5-.9s-.2-1.4.8-1c.8.3 1.2 1 .8 1.6zM43 197c0 .5-.2 1-.4 1-.3 0-.8-.5-1.1-1-.3-.6-.1-1 .4-1 .6 0 1.1.4 1.1 1zm-4.8 1.3c-1.2.7-1.9 1.6-1.6 2 .4.4.2.7-.4.7-.7 0-1.2-.4-1.2-1 0-1 2.9-2.9 4.5-2.9.6 0 0 .5-1.3 1.2zm103.3-.4c-.3.5.4 1.2 1.5 1.6 1.1.4 1.8 1.1 1.4 1.6-.4.6-1.1.6-1.9-.1-.7-.6-1.5-.7-1.7-.2-.1.5-1.6.3-3.3-.4l-3-1.2 3.5-1c1.9-.6 3.6-1.1 3.8-1.1.2-.1.1.3-.3.8zm4.9.6c.8.8 1.8 2.5 2.1 3.8.4 1.2 1.8 3.4 3.2 4.9 2.5 2.6 2.5 2.6.5 3.7-3 1.6-3.4 1.4-2.1-1 .9-1.8.7-2.5-.9-4.2-1.8-1.7-2.3-1.8-3.6-.7-1.1.8-1.6.9-1.6.1 0-.6.5-1.1 1-1.1 1.6 0 1.2-4-.5-4.6-1.6-.7-2.1-2.4-.6-2.4.5 0 1.6.7 2.5 1.5zm11.5 2.8c-2.2 1.7-2.4 1.8-2.7.3-.2-1-.1-2.4.2-3.2.5-1.2 1-1.3 2.8-.3l2.2 1.2-2.5 2zm51-1.5c-1.2.2-2.6-.1-3.3-.8-.8-.8-.7-1 .5-.5 1 .4 2 .1 2.4-.5.6-.9 1-.9 1.6.1.6 1 .2 1.5-1.2 1.7zm34.6-1.8c-.3.5-1.2 1-2 1s-1.7-.5-2-1c-.4-.6.5-1 2-1s2.4.4 2 1zm6.9 1.9c1.1.9 1.6 1 1.2.3-.4-.6-.3-1.2.2-1.2 1.8 0 2.1 1.3.7 4-.8 1.5-1.2 3-.9 3.3.3.3-.4.8-1.6 1.2-1.7.5-2.8.1-4.5-1.7-1.9-2.1-2.4-5.5-.6-4.3.5.2.7-.6.6-2-.3-2.6 1.4-2.5 4.9.4zm32.9 1.8c-.8 2-2.3.4-2.3-2.5 0-2.4.1-2.5 1.4-.7.8 1.1 1.2 2.5.9 3.2zm32.1-.9c0 1.2.5 2.3 1.3 2.6.9.4 1.3-.5 1.3-3.2.1-3 .3-3.4 1.1-2 .5 1 1.9 1.8 2.9 1.8 1.1 0 1.7.5 1.5 1.2-.3.7 0 2 .5 2.8.9 1.3 1.1 1.3 1.9 0 .6-.9.6-1.9-.1-2.7-1.3-1.6-.3-1.7 2.5-.2s3.7 2.8 3.7 5.6c0 1.7-.4 2.1-1.7 1.6-1.2-.5-1.4-.3-.7.8.4.8.7 2.2.6 3.1-.2 1 .2 1.8.8 1.8.6 0 .8-.5.5-1-.3-.6-.2-1 .4-1 1.3 0 1.9 2.3 2.5 9.1.3 3.1.7 6.2 1 7 .2.8.7 2.7 1.1 4.4l.6 3-2.1-3.3c-1.1-1.8-2-3.8-2-4.5 0-.7-2-3.7-4.5-6.7s-4.5-5.8-4.5-6.1c0-.4-.9-.5-2-.2-3.1.8-7-.5-7-2.5 0-.9-1.1-3-2.5-4.5s-2.3-2.7-1.9-2.7c.5 0 2.5 1.9 4.6 4.2 3.9 4.3 5.4 3.9 4.6-1.4-.2-1.8-.9-2.3-3-2.3-1.6.1-2.8-.3-2.8-.7 0-.4-.9-.8-1.9-.8-1.5 0-1.9-.7-1.9-3.4 0-3.2.2-3.3 2.7-2.6 1.8.5 2.6 1.3 2.5 2.8zm55-2.4c-.3.8.2 1.6 1.3 1.9 1.4.4 1.4.5-.4.6-2.2.1-3.1-1.8-1.6-3.2 1-1.1 1.3-.8.7.7zm-201.4.1c0 .7-3 1.3-3.4.7-.3-.4.4-.9 1.5-.9 1-.1 1.9 0 1.9.2zm16.6 1.7c4 3 4.4 3.8 4 7.3-.2 1.6-.4 3.6-.5 4.4-.1 1.1-.4 1.1-1.8 0-1.5-1.2-1.6-1.2-1.1.2.5 1.3.2 1.6-1.4 1.1-1.5-.3-1.6-.7-.7-1.3.8-.4 1-1.1.6-1.5-.4-.4-1.3-.2-1.9.4-1.7 1.7-4.8 1.5-4.8-.3 0-.9.6-1.2 1.7-.8 1.3.5 1.5.2 1.1-1.5-.4-1.2-.3-2 .2-1.7 1 .6 2-1.9 2-5.2 0-2.2-.3-2.5-3-2.1-1.6.3-3 .1-3-.4 0-1.7 5.8-.7 8.6 1.4zm52.3 0c.1-.8.6-1 1.4-.5.6.4 2.1.7 3.2.6 1.1-.2 1.4 0 .7.3-.6.3-1 1-.6 1.5.3.5-.1.9-1 .9-.8 0-1.6-.6-1.9-1.3-.3-.9-.7-.9-1.9 0-1.9 1.6-2.7.8-2-2 .5-2 .6-2 1.3-.1.4 1 .8 1.3.8.6zM268 199c0 .5-.5 1-1.1 1-.5 0-.7-.5-.4-1 .3-.6.8-1 1.1-1 .2 0 .4.4.4 1zm-134.6 1.1c-.2.4.9 1 2.6 1.4 1.6.4 3 1 3 1.4 0 .4 1 1.3 2.3 1.9l2.2 1.1h-2.4c-1.8.1-2.1.4-1.3 1.3.6.7 1 1.7 1 2.3 0 .5.9 1.2 1.9 1.6 1 .4-.5.6-3.3.5-5.1-.3-11.2-2.5-7-2.6 1.2 0 1.6-.5 1.2-1.5-.3-.8-.2-1.5.3-1.5 1.6 0 2.1 1.3 1 2.7-.9.9-.8 1.3 0 1.3.6 0 1.1-.5 1.1-1.1 0-.8.6-.7 1.8.2 1.5 1.3 1.6 1.2.3-.4-.7-.9-1-1.7-.5-1.8.5 0-.2-.5-1.6-1-2-.8-2.2-1.2-1-1.9 1.2-.8 1-1-.7-1-1.4 0-2.3-.6-2.3-1.5 0-.8-.5-1.5-1.1-1.5-.5 0-.7.6-.3 1.2.5.9.2.9-.9-.1-2.3-1.9-2.2-2.2 1.2-1.9 1.6.1 2.8.5 2.5.9zm-100.7 1.3c1.5-.5 1.5-.4.3.5-2.2 1.5-4.7 1.3-5.4-.4-.4-1.3-.2-1.3 1.4-.5 1 .5 2.7.7 3.7.4zm67.3 3c0 .6-.7.1-1.5-1-.8-1-1.5-2.3-1.5-2.8 0-.6.7-.1 1.5 1 .8 1 1.5 2.3 1.5 2.8zm8.7-2.2c-.3.8-.6.5-.6-.6-.1-1.1.2-1.7.5-1.3.3.3.4 1.2.1 1.9zm17.7-.9c.3-.3.6-.1.6.6s.5.9 1.3.5c.6-.4.9-.3.4.1-.4.5-1.6.9-2.7 1-1.1.1-1.8-.1-1.5-.3.3-.3-.3-1.1-1.3-1.9-1.5-1.3-1.5-1.3.4-.4 1.2.6 2.4.7 2.8.4zm43.4 1.2c-.3.3-.9-.2-1.2-1.2-.6-1.4-.5-1.5.5-.6.7.7 1 1.5.7 1.8zm39.8-1.1c.1 0 .5 1.2.8 2.6.5 1.7.4 2.1-.2 1.1-.8-1.1-1.2-1-2.1.8-.7 1.1-1.5 2.1-1.9 2.1-.7 0-4.2-6.3-4.2-7.6 0-.4 7.1.5 7.6 1zm69.8 2.5c-.5.6-3.4-2-3.4-3 0-.5.8-.1 1.8.8 1 1 1.7 2 1.6 2.2zm-102.2-.7c-.7.7-1.2.8-1.2.2 0-.6.3-1.4.7-1.7.3-.4.9-.5 1.2-.2.2.3-.1 1.1-.7 1.7zm97.8 3c0 1-.6 1.8-1.3 1.8-.9 0-1.3-1.2-1.3-3.5.1-3.1.3-3.3 1.4-1.8.6.9 1.2 2.5 1.2 3.5zm-56.2-2.9c1.4-.6 1.5-.5.2.9-1.5 1.6-3.1.7-2.9-1.7 0-.6.3-.5.5.2.3.7 1.3.9 2.2.6zm5.2 3.9c0 1 .5 1.8 1.2 1.8.6 0 .9.2.6.5-1.2 1.2-3.6-.8-3.3-2.6.2-1 0-1.9-.4-1.9s-.8-.7-.8-1.6c0-1.4.2-1.4 1.4.2.7 1 1.3 2.6 1.3 3.6zm64.5-4.2c.3.5 1.2.7 2 .4.8-.4 2.2.9 3.7 3.5 1.3 2.3 3 4.1 3.8 4.1 2.5.1 5 2.6 5.9 5.8.9 2.9.8 2.9-1.8 2.3-1.6-.5-3.2-2-4.3-4.3-1.8-3.8-3.2-4.6-8.5-5-3.6-.2-3.9-.8-2-3.8 1-1.7.9-2.2-.3-3-.9-.6-1-1-.3-1 .6 0 1.4.4 1.8 1zm16.3 3c.6 0 1.4 1.1 1.8 2.4.3 1.4 1.7 2.9 3.2 3.5 1.5.6 3.9 2 5.3 3.2 1.4 1.1 4 2.1 5.7 2.2 2.2.2 4.1 1.4 7.1 4.9 2.3 2.5 4.1 5.2 4.1 6 0 .8.9 3.3 2 5.6 2.2 4.5 2.5 5.6 1.1 4.8-.5-.4-2.2-3.8-3.7-7.7-2-5.5-2.9-6.8-3.6-5.6-.6 1.1-.4 2.6.5 4.4.8 1.6 1.2 3.4.9 4.2-.3.9 0 1.1.8.6.9-.5 1.1-.4.6.3-.4.7-.3 1.2.2 1.2.6 0 1.3.7 1.6 1.6.4 1 .2 1.3-.6.8-.7-.5-.9-.2-.5.9s.2 1.4-.9 1c-1-.4-1.2-.9-.4-1.8.7-.8.4-1.7-1-3-1.9-1.8-2-1.7-2 .6.1 2.7 5.9 14.1 7.5 14.6.6.2 1.8-.9 2.7-2.4 1.3-2.1 1.8-2.3 1.8-1.1 0 1 .5 1.8 1.1 1.8.7 0 1 1.2.7 3-.2 1.6-.1 3.1.4 3.2.5.2.9 1.8 1.1 3.6.1 1.7.5 3.2.8 3.2.3 0 1.1 2.4 1.9 5.2 1.9 7.3 2.1 8.8 1.2 8.8-1.6 0-1.1 5.1.8 8.5 2.1 3.8 2.6 7.5 1 7.5-.5 0-1.1-.8-1.1-1.8-.1-1.6-.2-1.6-.6 0-.2 1-1.2 1.8-2.2 1.8-.9 0-1.7-.8-1.8-1.8-.1-2-2.1-11.9-2.9-14.6-.5-1.6-.2-1.7 2.8-1.2 2.9.6 3.1.5 1.6-.7-2-1.6-2.5-3.2-.6-2.1.8.5.9-.2.4-2.6-.3-1.9-1.1-3.7-1.7-4.1-.6-.3-1.1-1-1-1.5 0-.5-.9-1.2-2-1.6-1-.4-1.9-.3-1.9.2 0 .6 1 1 2.1 1 1.8 0 1.9.3.9 1.5-1.1 1.3-1.4 1.3-2.7 0-1.7-1.8-2.9-1.9-3.8-.5-.9 1.4-3.5-.7-3.5-2.6 0-.8-.4-1.4-1-1.4-2.1 0-.9 2.7 2.5 5.7 1.9 1.7 3.5 4 3.6 5 .1 2.9.7 7.1 1.4 9.2.3 1-.1 2.4-1 3.1-2.1 1.8-1.9 3.3.4 2.1 2.5-1.4 4.1.5 3.4 4.1-.6 3.3-3.6 3.7-6.6 1-2-1.6-2-1.6-1.3.2.6 1.8.2 1.8-5.5 1.2-3.4-.3-9-.6-12.5-.6-7 0-6.2.7-7.9-7.5-.4-1.8-.1-2.5 1.1-2.5 1.3 0 1.2-.5-.6-2.8-1.6-1.9-3.1-2.7-5.3-2.7-3.1 0-3.2-.1-3.3-4.6 0-2.6-.4-5.5-.9-6.5-1.3-3.2-1.4-6.2-.2-7.9 1.1-1.4 1.4-1.4 3.4.4 2.1 2 2.1 2 3.5.1 1.2-1.8 1.5-1.9 4.4-.5 3 1.6 6.9 6.7 5.7 7.8-.7.7 5.2 5.9 7.9 6.9 3.2 1.3 1.9 3.6-3.6 6.6-5.1 2.7-5.5 2.8-5.9 1.1-.3-1.2 0-1.9.8-1.9s1.6-.4 1.9-.8c.6-1-2.5-.9-4.2.2-.6.4-1.2 1.2-1.2 1.7 0 .6.4.8.9.5.5-.3 1.2 1.6 1.6 4.2.9 6.3 2.4 8.1 4.2 5l1.4-2.3-.4 2.2c-.4 1.6 0 2.3 1 2.3.9 0 1.3-.6.9-1.5-.6-1.7.5-2 2.1-.4.7.7 1.2.4 1.6-1 .6-2.5-.6-3.5-3-2.3-1 .5-2.4.7-3 .5-.7-.3-1.3.2-1.3 1.1 0 .9-.3 1.6-.7 1.6-.5 0-.8-1.4-.8-3 0-1.7.3-3.1.8-3.1 1.7-.3 2.4-.6 5.6-2.3 3.4-1.8 3.5-1.8 5.2.3.9 1.1 2.1 2.1 2.6 2.1.4 0 1.7 1.5 2.8 3.3l2 3.2.3-3.9c.2-2.2-.2-4.2-.8-4.6-.7-.4-.9-1.9-.5-3.6.4-1.7.3-2.4-.2-1.7-1.1 1.6-3.8-7-2.9-9.3.4-1.2.2-1.5-.9-1.1-.8.4-2.8.2-4.4-.4-2.1-.7-3.6-.7-5 0-1.3.7-2.2.8-2.6.1-.3-.5-.1-1 .6-1 .6 0 .3-.8-.8-1.8-1-.9-1.3-1.3-.6-.8 1.6 1 1.8-1.5.2-3.1-.7-.7.4-1.4 3.6-2.3 2.5-.7 4.8-1.6 5-2.1.7-1.1-5.7-.1-6.9 1.1-1.2 1.2-2.9 1.3-2.2.1.3-.4-.6-.6-1.9-.3-3.8.7-3-.6 1.4-2.4 4.8-1.9 6.5-4.7 2.3-3.8-1.5.3-3.7 1-4.9 1.6-1.7.8-2.5.7-4.1-.8-1.1-1.1-2.1-2.8-2.4-3.9-.2-1.2-1.3-2.1-2.8-2.3-1.4-.2-3-.8-3.7-1.3-.7-.7-1.4-.6-1.8.1-.4.7-1.2.7-2.6 0-1.1-.6-1.9-.7-1.9-.1 0 .5.7 1.2 1.6 1.5 1.3.5 1.4.9.4 2.1-.8 1-3.1 1.5-6.6 1.5-5.2 0-5.3.1-3.6 1.8 1.1 1.2 2.1 1.6 2.9 1 .7-.5 1.4-.5 1.7.1.4.6-.2 1.6-1.2 2.2-1.2.7-1.7 1.9-1.4 3.1.5 2.2-.6 2.3-3.3.2l-2-1.5 2-1.6c1.9-1.5 1.9-1.5-.4-.8-1.7.5-2.2.4-1.6-.5.5-.8.3-1.1-.6-.8-.8.3-1.2 1.4-1 2.4.3 1.8.2 1.8-1.5.3-1.1-.9-2.4-1.4-3.1-1.2-1.5.5-2.5-1.1-1.7-3.1.5-1.3.9-1.2 2.7.5l2.2 2 .3-2.4c.3-2.1 1-2.5 4.7-3 2.5-.4 5.9-.4 7.7 0 3.2.6 3.3.6 1.6-1.4-1-1.1-1.9-3.5-1.9-5.4-.2-3.3-.2-3.4-.6-.4-.5 3.6-1.8 5.1-2.8 3.4-.5-.8-.4-1 .3-.5.7.4 1.2.3 1.2-.3 0-.5-.4-1.3-1-1.6-.5-.3-1-1.1-1-1.6 0-.6.4-.8.9-.5.5.4.7-.3.4-1.4-.7-2.8-2.3-2.5-2.3.4 0 1.9-.7 2.6-3 3.1-1.6.4-3 1.1-3 1.6s-.5.9-1.1.9c-.5 0-.7-.4-.4-1 .3-.6-.1-.7-.9-.4-.9.3-1.6 1-1.6 1.6 0 .5.5.6 1 .3.6-.3 1-.1 1 .4 0 1.6-2 1.3-2.6-.4-.4-.8-1-1.3-1.4-1-.9.6-5-4.2-5-5.7 0-.5.6-.8 1.3-.6.6.3 1.2 1.1 1.2 1.9 0 1.3 1.3 2.9 2.6 2.9.3 0 .4-1.3.1-3-.2-1.6-.8-2.8-1.2-2.5-.5.3-1.1.1-1.5-.5-.9-1.4 1.8-1.3 3.3.2.9.9 1.3.7 1.8-.5.4-1.3 1.9-1.7 5.4-1.7 2.7 0 5.2.4 5.5 1 .3.5 1.6 1 2.8 1 1.2 0 3.8 1 5.7 2.1 1.9 1.2 4.8 2.1 6.4 2.1 1.6 0 3.8.4 4.8.9 2.4 1.3 8.7 2.1 10.9 1.4 1.1-.4 1.6-1.2 1.2-2.1-.5-1.3-.7-1.3-1.4-.2-.7 1-.9 1-.9 0 0-.6-.5-1.2-1.1-1.2-.5 0-.8.4-.4 1 .3.5-.9.4-2.7-.2-3.3-1.1-5.7-3.4-5.7-5.3-.1-.6.8.1 1.9 1.5 1 1.4 2.1 2.2 2.5 1.9.3-.4-1.2-2.2-3.4-4.2s-4.7-5-5.6-6.7c-1.4-2.7-1.4-3 0-3 .9 0 1.3.5.9 1.1-.4.8-.1.8 1.2.2 1.1-.5 2.6-.9 3.4-.8.8.1 2.1-.3 2.9-.9 1.1-.9.9-1.2-1-1.7l-2.4-.7 2.4-.1c1.7-.1 2.1-.5 1.7-1.7-.3-.9-.6-2-.6-2.5 0-.6-.5-.7-1-.4-.6.4-.7 1.2-.3 1.8.4.7.1.7-.9-.1-.9-.8-1.4-2-1.1-2.8.3-1-.2-1.4-1.8-1.5-1.3 0-3.3-.4-4.4-.9-1.4-.7-.8-.8 2-.4l4 .6-2.2-2.1c-1.2-1.1-3.1-2.1-4.3-2.1-1.1 0-2-.6-2-1.3 0-2.5 1.3-2.7 3.5-.7 1.2 1.1 2.7 2 3.3 2zm70.9-3.4c-.3.3-1.2.4-1.9.1-.8-.3-.5-.6.6-.6 1.1-.1 1.7.2 1.3.5zM205 209c.5 0 1 .4 1 .9s-.9.7-2 .4c-1.1-.3-2-.9-2-1.4 0-.5-.4-.9-1-.9-1.8 0-1 1.7 1.3 2.8 1.6.8 1.7 1.1.6 1.1-2.1.1-3.9-2-4.5-5.2-.6-3.8 2.7-4.1 4.3-.5.7 1.6 1.7 2.8 2.3 2.8zm36.1-4.8c.8.7 2.1 2 2.8 3 1.1 1.5.7 1.6-3.3 1.6-4.5 0-6.6-1-4.6-2.3.5-.3 1-.1 1 .4 0 .6.5 1.1 1.1 1.1.8 0 .8-.5-.1-1.5s-1.6-1.2-2.5-.5c-.7.6-1.5.6-2.2-.1-1.3-1.3-3.6-.2-2.8 1.2.4.5-.2.6-1.1.2-1.3-.5-1.4-.8-.5-1.1 1.1-.4 1.1-.6 0-1.3-.9-.6.3-.8 3.4-.7 2.6.1 5-.2 5.4-.5.9-1 1.7-.9 3.4.5zm20.9-.3c0 .6-.4 1.2-.8 1.5-.5.3-.9-.1-.9-.9s.4-1.5.9-1.5c.4 0 .8.4.8.9zm24.2.9c-.7.2-1.2 1.6-1.2 3.1 0 1.9.8 3.2 2.9 4.4 1.5.9 3.1 1.4 3.5 1 .8-.9 4.6 2.7 4.6 4.5 0 .8 1.4 3.2 3.1 5.3 1.8 2.3 2.9 4.6 2.5 5.5-.9 2.3-2.8.6-2-1.8.4-1.4.2-1.8-.5-1.4-.6.4-1.1 0-1.1-1 0-1.2-.6-1.5-2.2-1-1.3.3-3.2.6-4.3.6-1.9.1-1.9.1-.1 1.5 1.2.9 1.7 2.2 1.3 3.5-.6 2.2.3 2.6 2.1.8.9-.9 1.3-.7 1.8.6 1 2.6 0 2.8-5.2 1.3-3-.8-5-2.1-5.2-3.1-.2-.9.1-1.6.7-1.6s1.1.7 1.1 1.5.4 1.5.9 1.5c2 0 2-1.8.1-3.8-2.4-2.5-2.6-3.6-.5-2.9.8.4 1.7.2 2-.3.4-.6 1.6-1 2.8-1 1.5 0 1.8-.3 1-1.1s-2.1-.7-4.7.2c-2.3.8-3.9 1-4.5.4-1.3-1.3-2.1-16.5-.9-16.5.5 0 .6-.4.3-1-.4-.6.1-.7 1.1-.3 1.1.4 1.3.8.6 1.1zm-177.5 3.9c-.3 1-.5.2-.5-1.7s.2-2.7.5-1.8c.2 1 .2 2.6 0 3.5zm62.8-1.6c1.8 3.5 1.5 4.8-.5 2.3-1.2-1.4-2.2-5.4-1.4-5.4.2 0 1.1 1.4 1.9 3.1zm2.5-2.1c0 .5-.2 1-.4 1-.3 0-.8-.5-1.1-1-.3-.6-.1-1 .4-1 .6 0 1.1.4 1.1 1zm97 .7c0 .5-.4 1.4-.9 2.1-.7 1.1-.9 1.1-1.4-.1-.3-.8-.3-1.8 0-2.1.9-.8 2.3-.7 2.3.1zm-170.3 2.5c-.3.8-.6.5-.6-.6-.1-1.1.2-1.7.5-1.3.3.3.4 1.2.1 1.9zm27.4.5c.7 1.8.6 3-.1 3.7-.6.6-1 .6-1.1 0 0-.5-.2-2.1-.4-3.7-.5-3.4.3-3.5 1.6 0zm67.8 0c.8 1.6.8 2.4-.1 2.9-.6.4-.8.3-.4-.4.3-.6 0-1.7-.8-2.5s-1.2-1.7-.9-2.1c.7-.7.7-.7 2.2 2.1zm69.7 4.8c2.2 1.4 2.6 4.3.3 3-.5-.4-.9.1-.9.9s.8 2 1.8 2.5c1.5.9 1.5 1 .1 1.1-1.9 0-2.9-2-2.9-5.6 0-1.7-.4-2.3-1.2-1.8-.7.4-1 .4-.6-.1.4-.4.3-1.6-.2-2.6-.6-.9-.7-2.6-.2-3.6.5-1.4.8-1.1 1 1.4.2 2 1.2 3.7 2.8 4.8zm53.1-4.4c.2 1.2-.1 1.8-.7 1.4-.5-.3-1-1.6-1-2.7 0-2.6 1.3-1.6 1.7 1.3zm-230.9 1.5c-.3 1.4-.5 1.2-1-.9-.3-1.9-.2-2.5.4-1.9.6.6.8 1.8.6 2.8zm88.2-3c0 .8-1.9 1.3-2.4.6-.3-.5.1-.9.9-.9s1.5.2 1.5.3zm41.9-.3c-.2.1-1.3.9-2.4 1.7-1.9 1.4-1.9 1.4-.6-.3.7-.9 1.8-1.7 2.4-1.7.6 0 .8.1.6.3zm-71.4 2.7c1.6 1.8 1.6 2 .2 2-1 0-1.6-.6-1.4-1.3.1-.6-.4-1.1-1-1-.7.2-1.3-.2-1.3-.7 0-1.6 1.5-1.2 3.5 1zm134.1-1c.8 0 1.4.9 1.4 2 0 2.5-.2 2.5-4 .2-2.9-1.8-3.1-3.8-.2-2.7.7.3 2 .5 2.8.5zm-87.1 1c.3.5.1 1-.4 1-.6 0-1.1-.5-1.1-1 0-.6.2-1 .4-1 .3 0 .8.4 1.1 1zm61.4 3c5.4 5.6 8 17.1 3.5 15.3-1.7-.6-1.8-2.7-.3-5.2.9-1.3.9-2.3 0-3.7-1-1.7-1-1.6-.5.8.6 2.7-.8 3.9-2 1.9-.3-.5-1.5-.7-2.6-.4-1.7.4-2 0-2-2.5 0-3 2.2-4.8 4.2-3.5.6.3.8.1.5-.4-.4-.6-1.6-1.3-2.7-1.6-1.1-.3-1.8-.1-1.4.4.3.5 0 .9-.5.9-.6 0-1.1-1.4-1.1-3 0-1.7.2-3 .5-3s2.2 1.8 4.4 4zm-93.2-2.4c-.3.3-1.2.4-1.9.1-.8-.3-.5-.6.6-.6 1.1-.1 1.7.2 1.3.5zm73.2 1.1c.3.2-.1.9-.9 1.6-1 .9-1.1.9-.6-.1.5-.8-.2-1.2-2.3-1.2-1.6 0-3.2-.4-3.6-.9-.5-.9 6.4-.3 7.4.6zm-83.1 2c-1 .2-2.8.2-4 0-1.3-.2-.5-.4 1.7-.4 2.2-.1 3.2.1 2.3.4zm49.6-.1c1.2.5 1.3 1 .5 2.5-.7 1.4-.7 1.9.2 1.7.6-.2 1.3.2 1.6.8.2.7-.6 1.1-2.1 1-1.3 0-2.2-.4-2-.8.2-.3-.3-1.4-1.3-2.3-1.4-1.4-1.4-1.8-.2-2.6 1.7-1.1 1.4-1 3.3-.3zM220 215c0 1.1-.7 2-1.5 2-1.3 0-1.3-.3-.3-2 .7-1.1 1.4-2 1.5-2 .2 0 .3.9.3 2zm26.4-.1c.3.4-1.1.5-3 .3s-3.4-.7-3.4-1.1c0-.9 5.9-.1 6.4.8zm-174.6.3c-.7 1.9-3.8 2.2-3.8.4 0-1 .9-1.6 2.1-1.6 1.2 0 1.9.5 1.7 1.2zm48.3.9c.8 1.6.8 2-.1 1.7-.6-.2-1.1-.7-1-1.2.1-.5-.4-1.3-1.2-1.7-.9-.6-.9-.9-.1-.9.7 0 1.7 1 2.4 2.1zm90.3-.6c.6 1.6-1.1 2-4 .8-1.6-.6-1.6-.7.2-1.4 2.8-1.1 3.1-1.1 3.8.6zm70.3.7c-.3.8-.6.5-.6-.6-.1-1.1.2-1.7.5-1.3.3.3.4 1.2.1 1.9zm-37.7 1.3c0-.4.6-.2 1.4.5.8.6 1.2 1.8 1 2.5-.4 1.1-1.2.7-3-1.2-2.7-2.9-3.2-4.2-.9-2.3.8.7 1.5.9 1.5.5zm-45.5 1.5c-.3.6.3 1.4 1.5 1.8 1.9.7 2 1 .6 2.1-.8.7-2 1-2.6.6-1.3-.8-1.3-5.5.1-5.5.5 0 .7.5.4 1zm14 1c-.4.6-1 .8-1.5.5-.5-.3-1.3.3-1.9 1.2-.7 1.4-1.3 1.5-2.2.6-1.7-1.7-.2-3.3 3.2-3.3 1.8 0 2.8.4 2.4 1zm6.9.4c-.3.9-1.3 1.2-2.7.8-2.1-.6-2.1-.6.3-1.3 1.4-.4 2.6-.7 2.7-.8.1-.1 0 .5-.3 1.3zm63.1-.4c.3.5.2 1-.4 1-.5 0-1.3-.5-1.6-1-.3-.6-.2-1 .4-1 .5 0 1.3.4 1.6 1zm-58.2.7c-.7.2-1.9.2-2.5 0-.7-.3-.2-.5 1.2-.5s1.9.2 1.3.5zm6.7.2c0 .5.8.7 1.9.4 2.9-.7 3.3 1.3.5 2.6-1.5.6-2.2 1.6-1.8 2.3.4.7.3.8-.5.4-.6-.4-.9-1.1-.6-1.6.9-1.4-.6-3.9-2-3.4-.7.3-1.6.1-2-.5-.4-.7.4-1.1 1.9-1.1 1.4 0 2.6.4 2.6.9zm50 3.5c-.7.7-1.4.6-2.2-.3-1.1-1.1-1-1.2.1-.6s1.3.4.7-1c-.5-1.5-.4-1.6.9-.5 1.1.9 1.3 1.6.5 2.4zm-41.9-.7c1 1.2 1.1 1.5.1.9-.7-.4-2-.2-2.9.6-1.5 1.2-1.5 1.1-.2-1 1.7-2.6 1.3-2.6 3-.5zm6.6.7c0 .8-.6 1.2-1.4.9-.7-.3-1.3-1.1-1.3-1.9 0-.7.6-1.1 1.3-.8.8.3 1.4 1.1 1.4 1.8zm40.3-.1c0 .6-.3.7-.7.4-.3-.4-1.2-.2-1.9.4-.9.8-1.1.5-.7-1 .5-2 3.3-1.9 3.3.2zm-167.5.8c.4.6 1.7 1.4 2.9 1.9 1.6.7 1.7.9.4.9-.9.1-2.3-.6-3.1-1.4-.8-.8-1.7-1.1-2.1-.8-.3.4-.6.1-.6-.5 0-1.5 1.7-1.6 2.5-.1zm84.5 2.2c0 .4-.6.2-1.4-.5-.8-.7-1.2-1.7-.9-2.2.5-.8 2.3 1.2 2.3 2.7zm8-2.2c0 .6-.7.9-1.5.5-.9-.3-1.5 0-1.5.8s.6 1.7 1.3 1.9c.7.3.5.6-.5.6-2.7.1-1.1 2.6 1.7 2.7 2 .2 2.3-.1 1.5-1-.5-.7-.7-1.6-.3-1.9 1.2-1.3 2.3-.7 2.3 1.2 0 2.8 1.7 3.5 3 1.4 1.1-1.7 1.1-1.7.6-.1-.3 1-.2 1.8.3 1.8s1.1-.9 1.4-2.1c.3-1.2 1-1.8 1.5-1.5.7.4.6 1.5-.1 3-1 2-1.7 2.3-5.7 1.9-2.5-.2-5.8-.4-7.5-.6-2.1-.1-3.1-.8-3.4-2.2-.3-1.6-.1-1.7 1.1-.7 1.3 1 1.5.7 1.6-1.8 0-2.1-.4-3-1.6-3.1-1.1-.1-.7-.4.8-.9 3.7-1.2 5-1.1 5 .1zm-82.5 4.7c-.3.3.2 1.4 1.2 2.4 2 2.2 1.1 2.4-1.1.2-.9-.8-1.6-3-1.5-4.7 0-3.1.1-3.1 1-.8.5 1.3.7 2.6.4 2.9zm69.3-1.8c-.3 1.6-.1 3 .4 3 .4 0 .8.9.8 2s-.7 2-1.6 2c-1.2 0-1.4-.9-1-4.8.6-5.6.5-5.2 1.2-5.2.4 0 .4 1.3.2 3zm57.9-.8c-.3.8-.6.5-.6-.6-.1-1.1.2-1.7.5-1.3.3.3.4 1.2.1 1.9zm-29.4-.5c-.7.2-2.1.2-3 0-1-.3-.4-.5 1.2-.5 1.7 0 2.4.2 1.8.5zm6.3 3.6c.1.9-.7 2.3-1.8 3.1-1.4 1-1.6 1.5-.6 2 .7.3.2.3-1.2-.1-1.4-.3-3.1-1.3-3.8-2.2-1.2-1.4-1.3-1.4-.7.4.5 1.6.4 1.7-.6.8-1-1-.9-1.6.2-2.9 2.9-3.5 8-4.2 8.5-1.1zm25.2-.1c.8 1 .5 1.3-1.3 1.3s-2.1-.3-1.3-1.3c.6-.6 1.2-1.2 1.3-1.2.1 0 .7.6 1.3 1.2zm-20.3.6c.6.4 1.5 1.6 2.2 2.8 1 1.9.9 2.1-1.5 1.7-4.9-.8-5.5-1.2-4.3-2.7.6-.7.8-1.6.4-1.9-.9-.9 2-.8 3.2.1zm69.3 4.7c-.3.3-.9-.2-1.2-1.2-.6-1.4-.5-1.5.5-.6.7.7 1 1.5.7 1.8zm-167.7 8.8c-.2 7.8.1 9.8 1.3 10.3.8.3 1.2 1.2.9 2-.3.7 1 2.7 2.9 4.5 2.7 2.5 2.8 2.8.6 1.5-2.9-1.9-4.4-.8-3.4 2.2.5 1.4.3 1.3-.9-.2-1.3-1.7-1.3-2.1.3-3.2 1.6-1.2 1.5-1.3-.5-1.4-1.2 0-2.5-.5-2.8-1-.4-.6-1-.8-1.4-.5-.8.4-.6-3.2.4-9 .3-1.7.5-5.9.5-9.3 0-4.4.3-6.3 1.1-6 .8.3 1.1 3.5 1 10.1zm146-2.6c1.2 1.4 1.2 1.6-.1 1.1-.8-.3-2.3-.1-3.2.3-2.3 1.2-3.3-.7-1.1-2 2.4-1.4 2.8-1.4 4.4.6zm-13.4 2.5c-.3.8-.6.5-.6-.6-.1-1.1.2-1.7.5-1.3.3.3.4 1.2.1 1.9zM128 246.7c0 .8-.5 1.3-1.2 1.1-1.8-.6-2.1-2.5-.3-2.5.8 0 1.5.7 1.5 1.4zm174.4-.6c3.7 1.7 4 4.6.7 6.4-2.7 1.3-3 1.2-6-1.8-2.4-2.6-2.8-3.6-1.9-4.5 1.5-1.5 4-1.5 7.2-.1zM114 250.5c0 1.2-1.9 1.2-2.3 0-.4-.9-.1-1.2.9-.8.7.3 1.4.7 1.4.8zm180.5-.5c.3.5.1 1-.4 1-.6 0-1.1-.5-1.1-1 0-.6.2-1 .4-1 .3 0 .8.4 1.1 1zm-4.2 2.4c.6 1.5-1.7 1.6-3 .1-.4-.4-.2-.5.5-.1.6.4 1.2.2 1.2-.3 0-1.5.7-1.4 1.3.3zm17.2.6c-.3.5-1.4 1-2.3.9-1.4 0-1.3-.2.3-.9 2.7-1.1 2.7-1.1 2 0zm-34.2 1.7c-.3.7-.8 1.3-1.2 1.3-.4 0-.8-.6-.8-1.3 0-.8.6-1.4 1.3-1.4.7 0 1 .6.7 1.4zm8.2 1.1c-2.4.5-6.7-.7-6.1-1.7.3-.4 2.2-.3 4.1.3 2.1.6 2.9 1.2 2 1.4zm-115.1.8c.3.7.1 1.6-.4 1.9-1.9 1.2-1 4.1 1.8 5.7 1.7 1.1 2.1 1.8 1.1 1.8-1.8 0-4.2-2.5-5.2-5.3-.4-1.1-1.2-1.5-1.9-1.1-.8.5-.9 0-.6-1.4.5-1.7.2-2.2-1.3-2.2-1.3 0-1.7.5-1.2 1.7.6 1.6.4 1.6-.9.5-.9-.7-3.1-1.5-4.9-1.7-6.3-.8-4.1-1.6 4.3-1.4 6.3.1 8.8.5 9.2 1.5zm11.6-1.2c0 .8-5.1 1.3-5.6.5-.3-.5.9-.9 2.5-.9 1.7 0 3.1.2 3.1.4zm5.3.3c-.7.2-1.9.2-2.5 0-.7-.3-.2-.5 1.2-.5s1.9.2 1.3.5zm8.4 1.5c1 1.7 2 18.8 1.1 18.1-.5-.2-.8-1.1-.8-1.9 0-.9-.5-1.2-1.2-.8-.7.5-.8.3-.2-.7.7-1.2.7-7.9-.1-8.7-.2-.2-1.4.2-2.7.8-2.2 1.1-2.2 1.1.2-.9 1.5-1.2 1.9-2.1 1.1-2.1-1.1 0-1.1-.3 0-1.6 1-1.3 1-1.7-.2-2.5-1.2-.7-1.1-.9.3-.9.9 0 2 .6 2.5 1.2zm84.8 1.8c.3.5-.1 1-1 1s-1.3-.5-1-1c.3-.6.8-1 1-1 .2 0 .7.4 1 1zm-90.9 2.1c.3.5.1 1.6-.4 2.6-.8 1.4-1.2 1.2-2.6-1.4-1.5-3-1.5-3.1.4-2.6 1.1.3 2.3.9 2.6 1.4zm-48.9.5c-.3.3-1.2.4-1.9.1-.8-.3-.5-.6.6-.6 1.1-.1 1.7.2 1.3.5zm26.1 1.2c.5 1.7-1.3 1.5-2.7-.2-1-1.2-.9-1.4.5-1.2 1 .2 2 .8 2.2 1.4zm6.3-.1c1.3 1.6 1.2 1.7-.3.4-1-.7-1.8-1.5-1.8-1.7 0-.8.8-.3 2.1 1.3zm112.3.8c.8.8 1.7 2.4 2.1 3.4.3 1.1 1.3 2.2 2.1 2.5 3 1.1.5 2.1-6 2.4-5.1.3-6.5 0-6.2-1 .2-.7.7-2.6 1.1-4.1.4-1.9 1.1-2.7 2-2.3.9.3 1.2 0 .8-1-.7-1.9 2.1-1.8 4.1.1zm-100 2.4c-.4.3-.9 0-1.1-.7-.3-.6-1-.9-1.5-.6-.7.4-.8.2-.4-.5.6-.9 1.1-.9 2.2 0 .8.6 1.2 1.5.8 1.8zm-47.9-1c.3.5.1 1.2-.5 1.6-.5.3-1-.1-1-.9 0-1.8.6-2.1 1.5-.7zm4.8 1.2c.5.3 0 .9-1.1 1.1-1.5.4-1.8.1-1.4-1.4.2-1 .7-1.5 1.1-1.1.3.4 1 1.1 1.4 1.4zm38.5-.9c-.2.7.3 1.2 1 1 .8-.1 1.1.2.7.8-.5.8-1.1.8-2.1-.1-.7-.6-1.1-1.5-.8-2 .8-1.3 1.4-1.1 1.2.3zm95.4.5c-.5 1-.7 2.5-.4 3.3.4 1.1.2 1.1-1.1-.2-2.2-2.1-2.1-3.5.1-4.1.9-.3 1.8-.5 2-.6.1 0-.1.7-.6 1.6zm63.8.3c.6 1.1.7 2 .2 2-.6 0-1.2-.9-1.5-2-.3-1.1-.3-2-.1-2 .2 0 .8.9 1.4 2zm-187 0c0 .5-.2 1-.4 1-.3 0-.8-.5-1.1-1-.3-.6-.1-1 .4-1 .6 0 1.1.4 1.1 1zm147.2.9c-.6.3-1.2 2.7-1.4 5.1l-.3 4.5-4.7.3c-4.4.3-4.8.1-4.7-2 0-2.1.1-2.1.8-.4.7 1.7.8 1.7 1.4.3.3-.8.4-2.7.1-4-.3-2.2.1-2.7 3.8-3.9 4.1-1.3 7.2-1.3 5 .1zm28.8.1c2.1 2.1 2.6 4 1.1 4-1.7 0-9.1-4.7-8.4-5.3 1.3-1.4 5.4-.6 7.3 1.3zm-150.8 5.2c-3 1.2-3.4.9-2.8-1.8.4-1.6.3-2.3-.3-1.9-.7.3-.8 0-.5-.9.5-1.2 1.1-.9 2.9 1.2 2.1 2.4 2.2 2.8.7 3.4zm-33.6 1c5.3-.2 6.2 0 6.6 1.6.3 1.1.1 2.7-.4 3.6-1.3 2.3 1.3 2.1 4.6-.5l2.6-2-.1 3.8c-.1 2.2-.4 2.9-.6 1.6-.2-1.2-1-2-1.6-1.7-1.3.5-1.6 7.2-.4 9.1.5.8.1.8-1.8 0-1.4-.7-2.5-1.7-2.5-2.2 0-.6-1-1.1-2.1-1.2-1.2-.1-3-1-4.1-2-1.1-1-2.2-1.7-2.4-1.6-.2.1-1.1 0-2-.4-1.5-.5-1.5-.7 0-1.5 1.6-.9 2.2-2.9.9-2.7-2.2.4-3.1-.5-4.1-4-1.5-4.9-1.4-6.5.1-2.6 1.2 2.9 1.3 3 7.3 2.7zm196.1-2c-.3.8-.6.5-.6-.6-.1-1.1.2-1.7.5-1.3.3.3.4 1.2.1 1.9zM107 271c0 .5-.2 1-.4 1-.3 0-.8-.5-1.1-1-.3-.6-.1-1 .4-1 .6 0 1.1.4 1.1 1zm14.1 1.3c-1 .9-1.1.8-.5-.6.3-1 .9-1.5 1.2-1.2.3.3 0 1.1-.7 1.8zm21.6-1.7c-.3.3-1.2.4-1.9.1-.8-.3-.5-.6.6-.6 1.1-.1 1.7.2 1.3.5zm25 .9c.9 1 .6 1.2-1.3 1.2-1.3 0-2.4-.5-2.4-1.2 0-.6.6-1.2 1.3-1.2.7 0 1.8.6 2.4 1.2zm-52.2 2.3c-.3.3-1.1 0-1.8-.7-.9-1-.8-1.1.6-.5 1 .3 1.5.9 1.2 1.2zm40.5-1.2c0 .8-1.9 1.3-2.4.6-.3-.5.1-.9.9-.9s1.5.2 1.5.3zm31 2c0 .8-.4 1.4-1 1.4-.5 0-.9.9-.7 1.9.1 1.1-.2 2-.8 1.9-.5 0-.9-.5-.7-1 .1-.6-.3-1.6-.9-2.4-.9-1.1-.9-1.7.1-2.8 1.3-1.7 4-1 4 1zm-36.5 2.2c-.8.8-2.5-1-2.5-2.6 0-1.3.2-1.3 1.4.4.8 1 1.3 2.1 1.1 2.2zm177.9-1.6c.9 3.5.7 4.1-.8 2.9-1.9-1.6-2.7-5.1-1.1-5.1.7 0 1.5 1 1.9 2.2zm-45.5.5c0 1-.3 1.3-.5.6-.3-.7-1.1-1-1.9-.7-.7.3-1.6.1-2-.5-.4-.7.4-1.1 1.9-1.1 1.8 0 2.6.5 2.5 1.7zm-158.4.2c.3.5.1 1.2-.5 1.6-.5.3-1-.1-1-.9 0-1.8.6-2.1 1.5-.7zm37.7-.2c-1 .4-1 .8 0 2.1.9 1.2.5 1.1-1.2-.3-1.4-1.1-2.7-2.1-2.9-2.2-.2-.2.9-.3 2.5-.2 1.6 0 2.3.3 1.6.6zm3 1.8c.3 1.3.1 2.2-.3 1.9-.9-.5-1.3-4.4-.5-4.4.2 0 .6 1.1.8 2.5zm5.2-.8c-.8.9-1.2 1.8-.9 2.2.4.3 1.5-.4 2.5-1.7 1.9-2.3 1.9-2.3 3-.2.9 1.8.8 2-1.5 2.1-1.4.1-3 .2-3.6.3-.7.1-1.5-.9-2-2-.6-1.8-.4-2.2 1.6-2.2 2.1 0 2.2.2.9 1.5zm31.6-.7c0 .5-.2 1-.4 1-.3 0-.8-.5-1.1-1-.3-.6-.1-1 .4-1 .6 0 1.1.4 1.1 1zm12 1c0 .5-.2 1-.4 1-.3 0-.8-.5-1.1-1-.3-.6-.1-1 .4-1 .6 0 1.1.4 1.1 1zm9.3-.3c-.7.2-1.3 1.1-1.3 1.8 0 .8-.8 1.9-1.9 2.4-1.5.9-1.8.7-1.6-1.2.1-1.2.3-2.4.4-2.7 0-.3 1.3-.6 2.9-.7 1.5-.1 2.1.1 1.5.4zm9 0c-.7.2-1.9.2-2.5 0-.7-.3-.2-.5 1.2-.5s1.9.2 1.3.5zm15 0c-2.3.2-6.4.2-9 0-2.6-.2-.7-.3 4.2-.3 5 0 7.1.1 4.8.3zm56.4.8c-.4.8-.2 1.7.4 2.1.5.3.6 1.1.2 1.7-.5.7-.8 3.1-.7 5.4 0 2.4-.2 4.3-.6 4.3-.6 0-1-1.6-1.1-5.2 0-1-.5-2-1-2.3-.5-.4-.7-1.1-.4-1.6.4-.5.2-.9-.4-.9-.5 0-1.3.9-1.6 2.1-.4 1.1-.9 1.9-1.1 1.6-.2-.2.3-2 1.1-4 1.1-2.7 1.9-3.5 3.2-3 1.1.4 1.4.3.9-.5-.4-.7-.2-1.2.4-1.2.7 0 1 .7.7 1.5zm-106.2.5c.3.6-.1.7-.9.4-1.8-.7-2.1-1.4-.7-1.4.6 0 1.3.4 1.6 1zm150.2 2.7c-.3 1-.5.4-.5-1.2 0-1.7.2-2.4.5-1.8.2.7.2 2.1 0 3zm-219.2-1.8c-.3.5.6 2.2 2 3.8l2.6 2.8-.6-2.5c-.5-2-.4-2.2.5-.8 1.3 2.1.2 5.6-1.2 3.6-.7-1-1.1-1-1.5-.1-.2.7-.9 1.3-1.4 1.3-.6 0-.7-.5-.4-1 .3-.6.1-1-.4-1-.6 0-1.1-.5-1.1-1.1 0-.8.5-.8 1.5.1.9.8 1.5.9 1.5.2 0-.6-.4-1.4-1-1.7-.5-.3-1.5-1.5-2-2.6-.9-1.5-.7-1.9.5-1.9.9 0 1.4.4 1 .9zm161.2 1.1c.9 1 1.2 1.1 1.3.2 0-.6.8-1.2 1.8-1.1.9 0 1.2.3.6.5s-.8 1.8-.6 3.4c.3 2.4.1 2.9-1.2 2.4-.8-.3-1.4-1-1.3-1.4.1-.5-1.4-2-3.3-3.5-3.2-2.4-3.3-2.5-1-2.3 1.4.2 3 1 3.7 1.8zm-74.1-.1c-.4.5 0 1.2.6 1.4.8.3.6.6-.4.6-1.8.1-2.4-1-1.1-2.2.9-1 1.5-.8.9.2zm-52.6 1.5c0 .8.6 1.7 1.3 1.9.9.4.9.6 0 .6-.7.1-1.7-.8-2.3-1.9-.7-1.4-.7-2 0-2 .5 0 1 .6 1 1.4zm18 0c2.5.8 3.6 1.5 2.5 1.5-1.2.1-2.6.6-3.3 1.3-.9.9-1.5.9-2.4 0-.9-.9-.9-1.2.2-1.2 1.6 0 .5-1.3-1.5-1.6-.8-.1-1.1.4-.8 1.2.3.8 0 1.4-.6 1.4-1.9 0-1.2 1.8.9 2.5 1.1.3 2 1.4 2 2.3-.1 1.5-.2 1.5-1.1-.1-.6-.9-1.5-1.5-2-1.1-1.3.8-6.3-4.6-5.2-5.6.4-.5 1.9-1 3.3-1.3 1.4-.2 2.7-.5 3-.5.3-.1 2.5.5 5 1.2zm80 .2c0 .2-.7.4-1.5.4s-1.5-.4-1.5-1c0-.5.7-.7 1.5-.4.8.4 1.5.8 1.5 1zm9.5-.6c.3.5.2 1-.4 1-.5 0-1.3-.5-1.6-1-.3-.6-.2-1 .4-1 .5 0 1.3.4 1.6 1zm-31.2.7c-.7.2-1.9.2-2.5 0-.7-.3-.2-.5 1.2-.5s1.9.2 1.3.5zm41.9 1.2c-.3.9-.9 2.1-1.3 2.7-.5.6-.6 1.4-.2 1.7.3.4.2.7-.4.7-1.6 0-6-3.9-4.5-4 .6 0 1.2.4 1.2 1 0 .5.4 1 1 1 .5 0 .7-.7.4-1.5-.7-1.8 1.2-2 2-.3.3.7.4.4.1-.8-.4-1.4 0-2.1.9-2.1s1.2.7.8 1.6zm-79.4.7c3.1 2.1 2.8 2.9-1.5 4.7l-3.8 1.5h3.2c2.1-.1 3-.5 2.6-1.2-.4-.6 0-.5.9.2 1.5 1.2 1.7.9 2-2.5l.3-3.8.5 4.1.5 4.1-6.5.2c-6.7.1-10.3-1-8-2.4.7-.4 1.6-.2 2 .5.6.9 1 .7 1.5-.9.3-1.1 1.1-2.1 1.6-2.1.6 0 .7.4.4 1-.4.6.1.7 1.1.3 1.5-.6 1.5-.7-.1-1.6-1.1-.6-2.1-.5-2.8.2-1.7 1.7-3.1 1.3-1.7-.4.7-.8 2.1-1.5 3.2-1.5 1 0 1.6-.5 1.3-1-.9-1.5.8-1.2 3.3.6zm26.9.6c-.4 1.5.1 3 1.5 4.5l2.1 2.3h-3.4c-3.2 0-3.4-.2-3.5-3.8 0-2 .1-3.1.4-2.4.2.6.8 1 1.3.6 1.6-.9 1-2.2-1.3-2.7-1.9-.4-1.8-.5.6-.6 2.5-.1 2.8.2 2.3 2.1zm-18.1 1.2c.1 1.4-.4 2.7-1.2 3-1.7.6-1.8-.8-.4-3.5 1.4-2.4 1.5-2.4 1.6.5zm3.8-.3c-.2.5 0 1.8.7 3 .6 1.2.7 1.9.1 1.5-.6-.3-1.5-1.9-2-3.5-.9-2.5-.8-2.9.4-2.4.7.3 1.1.9.8 1.4zm21.9-.8c.3.8.1 2-.4 2.8-.6 1-.9.7-.9-1.4 0-2.9.5-3.5 1.3-1.4zm-80.4 1.8c-1.4.8-2.9.3-2.9-1.1 0-.4.9-.6 2.1-.3 1.5.4 1.7.8.8 1.4zm28-1.2c1 .7 1.1 1.3.2 3-.7 1.2-1.6 1.9-2.2 1.5-.6-.4-.6-1.1.2-2.1 1-1.2 1-1.6-.2-2.4-.8-.5-.9-.9-.4-.9.6 0 1.6.4 2.4.9zm-62.9 6.7c0 .2-.7.1-1.5-.2-.9-.4-1.5-1.9-1.5-3.8l.1-3.1 1.4 3.4c.8 1.8 1.5 3.5 1.5 3.7zm102.9-4c.3 1.6.1 1.6-1.2.5-.9-.7-2.2-.9-2.9-.5-.9.6-.9.3.1-.9 1.7-2.1 3.5-1.7 4 .9zm61.4-.3c.4-.3.7-.1.7.5 0 .7-1.2 1.2-2.7 1.2-2 0-2.4-.3-1.4-.9.7-.5 1-1.5.7-2.2-.4-.8-.1-.6.7.3.8 1 1.7 1.5 2 1.1zm-112 3.4c-.7.3-1.8-.1-2.5-.7s-2.2-1.7-3.3-2.6c-1.1-.8 0-.5 2.5.7s4 2.4 3.3 2.6zm99.7-1.1c0 1.1-1.5 1.4-5.7 1.3-5.6-.2-5.6-.2-1.8-.9 2.2-.4 3.6-.8 3.2-.9-.5 0-.6-.5-.3-1 .9-1.3 4.6-.1 4.6 1.5zm-116.7-.9c-.7.2-1.9.2-2.5 0-.7-.3-.2-.5 1.2-.5s1.9.2 1.3.5zm120.7.8c1 1.3.9 1.5-.9 1.5-1.2 0-2.1-.6-2.1-1.5 0-.8.4-1.5.9-1.5s1.4.7 2.1 1.5zm-168.5.5c.3.6-.1.7-.9.4-1.8-.7-2.1-1.4-.7-1.4.6 0 1.3.4 1.6 1zm103.2.6c-.3.3-1.2.4-1.9.1-.8-.3-.5-.6.6-.6 1.1-.1 1.7.2 1.3.5zm11.6.1c-.7.2-2.1.2-3 0-1-.3-.4-.5 1.2-.5 1.7 0 2.4.2 1.8.5zm68.5 0c-1 .2-2.6.2-3.5 0-1-.3-.2-.5 1.7-.5s2.7.2 1.8.5zm-218.5 3c-.7.2-1.9.2-2.5 0-.7-.3-.2-.5 1.2-.5s1.9.2 1.3.5zm47.7-.3c0 .3-.4.8-1 1.1-.5.3-1 .1-1-.4 0-.6.5-1.1 1-1.1.6 0 1 .2 1 .4zm104.2 1.8c.4 1.9 0 2.3-2.3 2.3-1.7 0-2.5-.4-2.2-1.3.3-.6-.2-1.2-1.1-1.2-1 0-1.3.6-1 1.5.4.8.1 1.5-.5 1.5h-1.8c-.4 0-.8-1.1-1-2.5-.4-2.4-.1-2.5 4.5-2.5 4.4 0 5 .3 5.4 2.2zm25.2-.7c.3.8.1 1.5-.4 1.5-.6 0-1-.5-1-1.1 0-.5-.4-.8-.9-.4-.5.3-1.2.1-1.6-.5-.3-.5.3-1 1.3-1 1.1 0 2.2.7 2.6 1.5zm22.6-.3c0 .7-.4 1.9-.9 2.7-1.1 1.7-3.4.4-2.7-1.4.3-.8-.3-1.6-1.2-1.8-.9-.3-.2-.5 1.6-.6 2-.1 3.2.4 3.2 1.1zm13.3.3c-.3.9-.8 1.4-1 1.1-.3-.3-.2-.9.2-1.5.9-1.6 1.5-1.3.8.4zm6.4 2.2c-.3 1-.5.4-.5-1.2 0-1.7.2-2.4.5-1.8.2.7.2 2.1 0 3zm13.5-.7c.5 1.3.6 2.1.2 1.7-.4-.3-1.6-.1-2.7.5-1.7.9-1.9.8-1.4-.7.4-.9.7-2.3.7-3.2 0-2.2 2.2-1.1 3.2 1.7zm3.9-1.7c-.6.8-.8 1.7-.4 2 .3.4.1.7-.5.7-2 0-2.3-1.9-.5-2.9 2.4-1.4 2.7-1.3 1.4.2zm23.3 1.2c1.9 2.9 1 3.1-3.9 1.1-4.2-1.8-4.5-3.6-.6-3.6 2 0 3.4.8 4.5 2.5zm8.2.6c0 1-.6 1.9-1.4 1.9-.7 0-1.1-.4-.8-.9.3-.5-.1-1.1-.9-1.4-1-.4-1.2-.1-.8 1.1.6 1.5.5 1.5-1 .3-2.8-2.2-2.1-3.7 1.6-3.3 2.4.3 3.3.9 3.3 2.3zm-181.6-.6c0 .8-.4 1.5-1 1.5-.5 0-.7-.7-.4-1.5.4-.8.8-1.5 1-1.5.2 0 .4.7.4 1.5zm41-1.1c0 .2-.7.7-1.6 1-.8.3-1.2.2-.9-.4.6-1 2.5-1.4 2.5-.6zm42 0c0 .3-.4.8-1 1.1-.5.3-1 .1-1-.4 0-.6.5-1.1 1-1.1.6 0 1 .2 1 .4zm35.7 1.1c0 .8-.4 1.5-.9 1.5-.4 0-.8-.7-.8-1.5s.4-1.5.8-1.5c.5 0 .9.7.9 1.5zm11.8-.4c1.1 1.6.1 1.9-1.3.3-.7-.8-.8-1.4-.3-1.4s1.3.5 1.6 1.1zm26.3.5c2.8 1.9 2.8 3.4.1 3.4-1.2 0-1.7-.4-1.4-1.1.4-.6-.1-1.7-1.1-2.4-2.6-2-.4-1.9 2.4.1zm29 .9c-.3.3-.9-.2-1.2-1.2-.6-1.4-.5-1.5.5-.6.7.7 1 1.5.7 1.8zm9.8 2.3c-1 1-3.9-2.5-3.1-3.8.5-.8 1.2-.5 2.2 1 .8 1.2 1.2 2.4.9 2.8zM122.3 297c.3 1.1.1 2-.4 2s-.9-.9-.9-2 .2-2 .4-2 .6.9.9 2zm86 .1c.4 1.6.3 1.8-.9.8-.7-.6-1.1-1.5-.8-2 .8-1.3 1.1-1.1 1.7 1.2zm30.2-.3c-.3.3-1.1 0-1.8-.7-.9-1-.8-1.1.6-.5 1 .3 1.5.9 1.2 1.2zm11 .5c1.9.4 1.9.5-.1.6-1.2 0-2.8-.7-3.5-1.7-1.2-1.5-1.2-1.6.1-.6.8.7 2.4 1.4 3.5 1.7zm64.1.4c-.7.7-2.6-.7-2.6-1.9 0-.6.6-.6 1.5.2.9.7 1.3 1.5 1.1 1.7zm-110.2-.1c.3.8.2 1.2-.4.9-.6-.3-1-1-1-1.6 0-1.4.7-1.1 1.4.7zm41.7.1c1.3 1.6 1.2 1.7-.3.4-1.7-1.3-2.2-2.1-1.4-2.1.2 0 1 .8 1.7 1.7zm77.4-.7c.3.6-.1.7-.9.4-1.8-.7-2.1-1.4-.7-1.4.6 0 1.3.4 1.6 1zm-247 1c.3.5-.3 1-1.5 1s-1.8-.5-1.5-1c.3-.6 1-1 1.5-1s1.2.4 1.5 1zm254.8.7c-.7.2-1.9.2-2.5 0-.7-.3-.2-.5 1.2-.5s1.9.2 1.3.5zm-311.6 3.9c-.3.3-1.2.4-1.9.1-.8-.3-.5-.6.6-.6 1.1-.1 1.7.2 1.3.5zm54.8 1.3c.8 2.5 3.1 3.4 5.6 2.1 3.1-1.7 2.2.4-1.1 2.3-1.6 1-3 1.4-3 .9 0-.5-1.1-.7-2.5-.4-2.2.4-2.5.1-2.5-2.5 0-4.4 2.3-6 3.5-2.4zm4 .3c.6.4.2.8-.7.8-1 0-1.8-.7-1.8-1.7 0-.9.3-1.2.8-.7.4.5 1.2 1.2 1.7 1.6zM121 303c0 .5-.2 1-.4 1-.3 0-.8-.5-1.1-1-.3-.6-.1-1 .4-1 .6 0 1.1.4 1.1 1zm81.3-.3c-.7.2-1.9.2-2.5 0-.7-.3-.2-.5 1.2-.5s1.9.2 1.3.5zm9.5 0c-1 .2-2.6.2-3.5 0-1-.3-.2-.5 1.7-.5s2.7.2 1.8.5zm66.6.9c.6 1.5.4 1.5-1.1.3-1-.7-2-1.5-2.2-1.6-.2-.2.3-.3 1.1-.3.9 0 1.9.7 2.2 1.6zm40.5-.2c1 1.1 1 2 0 3.7-.9 1.7-.9 2.4 0 2.7.6.2.9.8.5 1.3-.3.5.1.9.9.9 1.1 0 5.3 6.8 4.5 7.5-.2.1-1.2.7-2.3 1.3-1.6.9-1.7 1.1-.3 1.2 1.1 0 1.5.6 1.1 2-.6 2.2-1.8 2.6-2.8 1-.3-.6-1.1-1-1.6-1-.6 0-.7.5-.3 1.2.4.7.3.8-.4.4-1.3-.8-.4-3.6 1.7-5.4.9-.8 1-1.1.4-.7-.7.3-1.3.2-1.3-.2 0-.5-.7-1.8-1.5-2.9-1.3-1.7-1.4-1.6-.9 2.1.5 3.7.4 3.9-1 2.1-.8-1-1.3-2.2-1.1-2.6.2-.4-.5-1.7-1.6-2.8-1.1-1.2-1.5-2.2-.9-2.2s.8-.5.5-1c-1.6-2.5-3.3-.7-3.9 4-.4 2.8-1.1 4.8-1.5 4.6-.5-.3-1.6-2.8-2.5-5.6-1.5-4.5-1.5-5.3-.1-8 1.7-3.3 4.5-4 4.5-1.2 0 2.1 6.3 8.6 7.3 7.6 1.1-1.1.8-2.6-.3-1.9-1.6 1-1.2-1.1.5-2.5 1.9-1.6 1.9-3.4-.1-5.1-1.2-1-2-1-3.5-.1-1.6 1-1.9.9-1.9-.3 0-2 6.3-2 7.9-.1zm6.1-1c0 .3-.4.8-1 1.1-.5.3-1 .1-1-.4 0-.6.5-1.1 1-1.1.6 0 1 .2 1 .4zm22 1.1c1 1.3 1.1 1.8.1 2.8-1 .9-1.1.9-.6-.4.4-1-.2-1.9-1.7-2.7-1.6-.7-1.8-1.1-.7-1.1.9-.1 2.2.6 2.9 1.4zm-290.3 1.9c-.7 1.4-1.3 2.3-1.5 2.1-.7-.6.9-4.5 1.8-4.5.4 0 .3 1.1-.3 2.4zm83.4.4c-.7.2-1.8-.1-2.3-.6-.8-.8-.4-.9 1.3-.5 1.3.4 1.8.8 1 1.1zm25.4-1c.6.4 1.1 2 1.2 3.5.1 3.3.1 3.3-2.1-1.1-1.6-3.1-1.2-4 .9-2.4zm74.4 2.6c-1.3 2.2-2.6 3.3-3.5 2.9-.8-.3-1.4-.7-1.4-1 0-.3.7-.3 1.5.1.8.3 1.5.1 1.5-.4 0-.6-.8-1-1.9-1-1 0-2.5-.7-3.2-1.7-1.3-1.5-1.2-1.5.9-.4 1.2.7 2.2.8 2.2.2 0-.9 2-1.7 4.7-2 .8-.1.5 1.2-.8 3.3zm6.1-2.3c0 .5-.4.8-.8.5-.5-.3-.9.1-.9.9 0 1.9 1.6 1.9 2.3 0 .4-.8 1.1-1.5 1.6-1.5.6 0 .5.6-.2 1.5-.9 1.1-1 1.8-.1 2.9.9 1.1.3 1.4-3.1 1.9-2.4.3-4.5.4-4.7.1-.9-.9 3.2-7.4 4.6-7.4.7 0 1.3.5 1.3 1.1zm-179 3.4c0 3.5-1.2 4.3-3.7 2.7-.8-.5-.9-1.2-.2-2.2.8-1.3 1-1.3 2 0 .8 1.2 1 .9.6-1.3-.2-1.5 0-2.7.4-2.7.5 0 .9 1.6.9 3.5zm110.4-.4c-.3.5-1.1.9-1.7.8-.8 0-.8-.2.1-.6 1-.4 1-.8 0-2.1-1.2-1.5-1.1-1.6.4-.3 1 .7 1.5 1.7 1.2 2.2zm27-2.4c-.5.5-1.2 1.2-1.6 1.8-.4.6-.8.2-.8-.8 0-.9.7-1.7 1.7-1.7.9 0 1.2.3.7.7zm61.3 1.5c-.3.8-.6.5-.6-.6-.1-1.1.2-1.7.5-1.3.3.3.4 1.2.1 1.9zm50.3-1.8c0 .2-.7.6-1.5 1-.8.3-1.5.1-1.5-.4 0-.6.7-1 1.5-1s1.5.2 1.5.4zm34.3 5.6c-.9 1.3-.9 2 0 2.9.7.7.8 1.4.1 2.1-.7.7-1.4-.2-2.3-2.6-1.1-3-1.1-4.1 0-6.1l1.3-2.5 1 2.2c.7 1.5.6 2.7-.1 4zm-35.8-3.4c.9-.3 1.3-.2 1 .4-1 1.6-4.2 1.2-4.9-.6-.5-1.4-.4-1.5.9-.4.8.7 2.2 1 3 .6zm14.9-.1c-.6 1.5-5.1 1.7-5.7.2-.3-.8.7-1.2 2.8-1.3 2 0 3.1.4 2.9 1.1zm-275.1 1c.4.8.3 1.6-.1 1.9-.4.3-.9-.4-.9-1.5-.2-2.3.3-2.5 1-.4zm127.2 1.6c-.5 1.4-.2 1.9 1.1 1.9 2.8 0 .8 1.2-2.9 1.7-2 .2-3.8 0-4.2-.7-1.1-1.8.1-2.3 2.4-1.1 1.7 1 2 .9 1.5-.4-.8-2 .3-4.8 1.6-4 .6.4.8 1.5.5 2.6zm71.3 0c1.1 0 1.2.2.4.6-1.5.6-4.2-1.4-4.2-3.1 0-.6.5-.3 1.1.6.5 1 1.8 1.8 2.7 1.9zM295 308c0 .5-.5 1-1.1 1-.5 0-.7-.5-.4-1 .3-.6.8-1 1.1-1 .2 0 .4.4.4 1zm-108 3c0 1.1-.4 2-.9 2-.7 0-.8-1.7-.2-3.8.4-1 1.1.2 1.1 1.8zm19.9.9c0 1-.2 1.1-.6.3-.2-.6-1.6-1.2-2.9-1.2-1.3 0-2.4-.4-2.4-.8 0-.5 1.4-.7 3-.4 2 .3 3 1 2.9 2.1zM73 312c0 .5-.7.7-1.5.4-.8-.4-1.2-1-.9-1.5.6-1.1 2.4-.2 2.4 1.1zm201.5-1c.3.6-.1.7-.9.4-1.8-.7-2.1-1.4-.7-1.4.6 0 1.3.4 1.6 1zm52.5 0c.5 0 .4 1.4-.2 3.1-1.1 3.3-1.8 2.9-3.3-2-.6-2-.4-2.3 1-1.8.9.4 2.1.7 2.5.7zm-250.3 2.2c-.3.8-.6.5-.6-.6-.1-1.1.2-1.7.5-1.3.3.3.4 1.2.1 1.9zm45.3-.8c0 .8-.4 1.7-.9 2.1-.6.3-.9-.4-.8-1.5.1-2.3 1.7-2.8 1.7-.6zm114.5.4c-.3.3-1.1 0-1.8-.7-.9-1-.8-1.1.6-.5 1 .3 1.5.9 1.2 1.2zm42.3 2.5c.6.5 1.2 1.4 1.2 2 0 .7-.5.5-1-.5-.6-.9-2.8-1.9-4.9-2.3-2.2-.4-4.5-1.2-5-1.9-.8-.9.3-.8 3.7.3 2.6.9 5.3 2 6 2.4zm-116.6-.5c-.7.2-1.2 1.3-1.3 2.5 0 1.3-.3 1.6-.6.9-.3-.8.1-2.5.8-3.9.8-1.6 1.5-2 1.8-1.2.2.7-.1 1.5-.7 1.7zm35.5.4c-.3.7-.5.2-.5-1.2s.2-1.9.5-1.3c.2.7.2 1.9 0 2.5zm24.8-.8c0 1.5-.4 2.1-.9 1.6s-.6-1.6-.3-2.4c.9-2.2 1.2-2 1.2.8zm18.7-.2c.4 1 1 1 3.2 0 1.5-.6 3.9-1.1 5.4-1.1 1.9.1 2.2.3.8.6-1.5.4-1.6.7-.5 1.4 1 .6.1.9-2.6.7-2.3-.1-4.6.2-5.3.6-.7.4-1.2.2-1.2-.5 0-.8-.4-.8-1.5.1-1.6 1.4-1.8 1-.9-1.4.7-1.9 2.1-2.1 2.6-.4zm14.8-.3c0 .6-.4 1.3-1 1.6-.5.3-1-.1-1-.9 0-.9.5-1.6 1-1.6.6 0 1 .4 1 .9zm-233.5 1.9c-.3.3-1.1 0-1.8-.7-.9-1-.8-1.1.6-.5 1 .3 1.5.9 1.2 1.2zm13.5-1.1c0 .5-1.6.8-3.5.8s-3.5-.3-3.5-.8c0-.4 1.6-.7 3.5-.7s3.5.3 3.5.7zm4.7-.1c-.3.3-1.2.4-1.9.1-.8-.3-.5-.6.6-.6 1.1-.1 1.7.2 1.3.5zm126.6 2.5c-.6 2.2 1.4 5.2 2.9 4.3.5-.3.1-1.5-.9-2.7l-1.8-2.2 2.3 1.9c2.9 2.5 3 6.6.1 6.6-1.1 0-1.7-.5-1.4-1 .3-.6.3-1.5-.1-2.2-.5-.8-1-.6-1.5.8-.6 1.4-.8 1-.8-1.8-.1-2-.4-4.4-.7-5.2-.4-1.2-.2-1.5.9-1 .9.3 1.3 1.3 1 2.5zm42.7-1c0 1.4-1.7 1-2.3-.5-.4-1-.1-1.3.9-.9.7.3 1.4.9 1.4 1.4zM4.7 317.2c-.3.8-.6.5-.6-.6-.1-1.1.2-1.7.5-1.3.3.3.4 1.2.1 1.9zm10.7-1.4c.3.5-1 .8-2.9.8-1.8 0-3.1-.4-2.9-.8.7-1.1 5.1-1 5.8 0zm94.6.7c0 .8-.2 1.5-.4 1.5s-.6-.7-1-1.5c-.3-.8-.1-1.5.4-1.5.6 0 1 .7 1 1.5zm228 .1c0 1-.6 1.4-1.5 1-.8-.3-1.5 0-1.5.6s-.3.8-.6.5c-.8-.8 1.4-3.7 2.7-3.7.5 0 .9.7.9 1.6zm-238-.2c0 1.1-1.9 1.5-2.5.6-.3-.5.1-1 .9-1 .9 0 1.6.2 1.6.4zm212 1.5c-1.5 2.9-2.7 3.3-2.4.8.1-1.2.3-2.3.3-2.5.1-.1.8-.2 1.6-.2 1.2 0 1.4.4.5 1.9zm-114.2 1.6c-.3.3-.9-.2-1.2-1.2-.6-1.4-.5-1.5.5-.6.7.7 1 1.5.7 1.8zm86.2.2c-.1 2.7-.1 2.7-1.5.9-1.2-1.6-1.2-2.2-.2-2.8 1.7-1.1 1.7-1.1 1.7 1.9zm-172.7-.2c-.3.9-.8 1.4-1 1.1-.3-.3-.2-.9.2-1.5.9-1.6 1.5-1.3.8.4zm52.9 1c.3 1.4.1 2.5-.3 2.5-.5 0-.9-1.1-.9-2.5s.2-2.5.4-2.5.6 1.1.8 2.5zm44.8-1.6c0 .5-.8 1.5-1.7 2.2-1.1 1-1.4 1-.9.1.5-.8.1-1.2-1.1-1.3-1.6 0-1.6-.1.2-.9 2.7-1.1 3.5-1.2 3.5-.1zm45.5.7c1.8 1.2 2.5 2.5 2.5 4.8l-.1 3.1-3.7-4.1c-2.1-2.2-4.2-3.9-4.9-3.7-.6.2-1.4 0-1.6-.4-1-1.6 5.3-1.3 7.8.3zm-56.9 2.5c1.9 2.2 1.9 2.2-.3.8-1.3-.8-2.3-1.7-2.3-2.1 0-1.2.6-.9 2.6 1.3zm52.1 2c.2 1.1-.1 1.8-.6 1.4-.6-.3-.9-1.4-.8-2.5.2-2.3 1-1.7 1.4 1.1zm-69.9.4c-.6 1.4-1.3 2.4-1.4 2.2-.6-.6.9-4.7 1.7-4.7.5 0 .3 1.1-.3 2.5zm6.9.7c-.3.8-.6.5-.6-.6-.1-1.1.2-1.7.5-1.3.3.3.4 1.2.1 1.9zM308 324c0 .5-.2 1-.4 1-.3 0-.8-.5-1.1-1-.3-.6-.1-1 .4-1 .6 0 1.1.4 1.1 1zm4.9.4c.6.8 2.5 1.9 4.2 2.6 1.6.7 2.7 1.5 2.5 1.8-.5.5-9.6-4.5-9.6-5.3 0-1 1.8-.4 2.9.9zm-279.4.6c-.3.5-1.2 1-1.8 1-.7 0-.6-.4.3-1 1.9-1.2 2.3-1.2 1.5 0zm52.7-.3c-.6.2-1 .9-.6 1.4.3.5 0 .9-.5.9-1.2 0-1.4-1.3-.4-2.3.3-.4 1.1-.7 1.7-.6.6 0 .5.3-.2.6zm197.8 1.4c0 1.1-.4 1.8-1 1.4-.5-.3-.7-1.2-.3-2 .7-2.1 1.3-1.9 1.3.6zm10.5-.1c.3.5.1 1-.4 1-.6 0-1.1-.5-1.1-1 0-.6.2-1 .4-1 .3 0 .8.4 1.1 1zm19.5 2c1.2.8 1 1-.9 1-1.3 0-2.1-.3-1.8-.7.4-.3-.1-1.2-1.1-2-1.6-1.3-1.5-1.3.3-.4 1.1.6 2.7 1.5 3.5 2.1zm29.1-1.1c-1.1.7-1 1 .5 1.4 1 .2-.2.5-2.7.6-3 .1-5.1-.4-5.9-1.4-1.1-1.3-.5-1.5 4.1-1.5 3.5 0 4.9.3 4 .9zM169 328.6c0 .2-.9.4-2.1.4-1.1 0-1.8-.4-1.4-1 .5-.8 3.5-.3 3.5.6zm217 3.4c0 .5-.5 1-1.1 1-.5 0-.7-.5-.4-1 .3-.6.8-1 1.1-1 .2 0 .4.4.4 1zm-218.6 1.7c1.1 2.8-1 3.5-2.2.8-.9-2-.9-2.5.2-2.5.8 0 1.7.8 2 1.7zm149.3.4c-2.2 1.2-4.6 1.7-5.5 1.4-1.2-.5-1.3-.9-.4-1.2.6-.3 1-.9.6-1.4-.3-.5 1.6-.9 4.3-.9l4.8.1-3.8 2zm14.8-1.1c.3.5-.1 1-.9 1-.9 0-1.6-.5-1.6-1 0-.6.4-1 .9-1 .6 0 1.3.4 1.6 1zm6.5.2c0 .9.2 1 .8.2.5-.8 2.3 0 5.7 2.3 5.8 4 3.1 3.6-5.5-.8-3.9-2-4.9-2.8-3.2-2.9 1.2 0 2.2.6 2.2 1.2zm8 0c0 .4.6.8 1.4.8.8 0 1.6.7 2 1.5.5 1.4.2 1.4-2.2 0-5.2-2.8-5.9-3.4-3.4-3.2 1.2 0 2.2.5 2.2.9zm-58.7 1.8c.3 1.1.1 1.8-.4 1.4-.5-.3-.9-1.2-.9-2 0-2 .7-1.7 1.3.6zm21.6 1.6c1.4 1.2-1.9.1-3.5-1.2-1.8-1.4-1.8-1.4.6-.3 1.4.6 2.7 1.3 2.9 1.5zm24.1 1c5.4 3.5 5.4 3.5 2 2.9-1.9-.3-6.5-1-10.1-1.5-7.8-1.1-10.1-1.9-9.3-3.1.6-1 3.3-.7 5.3.5 1.1.7 1.3.5.8-.7-1.2-3.2 5.4-2.1 11.3 1.9zm4.9-1c1.4 1.2-1.9.1-3.5-1.2-1.8-1.4-1.8-1.4.6-.3 1.4.6 2.7 1.3 2.9 1.5zm-178.9.3c0 .5-.7 1.2-1.6 1.5-1.4.5-1.5.4-.4-.9 1.4-1.7 2-1.9 2-.6zm88 1.3c0 1.8-.2 2-.9.8-.6-.8-.7-1.8-.5-2.2.9-1.4 1.4-.9 1.4 1.4zm-95.5.8c1.7 1.9 1.7 2 0 2-1 0-1.5-.3-1.2-.7.4-.3.2-1.2-.4-2-1.8-2.1-.4-1.5 1.6.7zm79.4 2.7c.2.2-1.2.3-3.1.3-2.9 0-3.6-.3-3.3-1.8.2-.9.4-2.1.4-2.6.1-.5 1.3.1 2.9 1.5 1.5 1.3 2.9 2.5 3.1 2.6zm-67.9-3.3c0 .2-1.5.9-3.2 1.5-3 1-3.1.9-1.4-.4 1.8-1.4 4.6-2 4.6-1.1zm5 .6c0 .5-.8 1-1.7 1-1.5 0-1.6-.2-.3-1 1.9-1.2 2-1.2 2 0zm25.7-.4c-.3.3-1.2.4-1.9.1-.8-.3-.5-.6.6-.6 1.1-.1 1.7.2 1.3.5zm19.3.3c0 .5-1.2.8-2.6.5-2-.4-2.5-.1-2.1.9.3.7-.1 1.4-.8 1.4-1 0-1.1-.5-.4-1.9 1-1.8 5.9-2.6 5.9-.9zm1.4 1.5c-.7 1.8-3.4 2.2-3.4.5 0-.5.5-.7 1-.4.6.3 1.3-.1 1.6-1 .4-.9.8-1.4 1-1.2.3.2.2 1.2-.2 2.1zm93.1-1.4c-.3.5-1.2 1-1.8 1-.7 0-.6-.4.3-1 1.9-1.2 2.3-1.2 1.5 0zm8.5 0c1.2.8 1.1 1-.7 1-1.3 0-2.3-.5-2.3-1 0-1.3 1.1-1.3 3 0zm-43.4 2.7c-.6.6-3.6-.9-3.6-1.8 0-.5.9-.4 2 .3 1 .7 1.8 1.4 1.6 1.5zm-260.3-1c-.7.2-1.9.2-2.5 0-.7-.3-.2-.5 1.2-.5s1.9.2 1.3.5zm249.7.3c0 .5-.2 1-.4 1-.3 0-.8-.5-1.1-1-.3-.6-.1-1 .4-1 .6 0 1.1.4 1.1 1zm66.5.1c1.1.1 0 .5-2.5.8-2.5.4-4.9.3-5.4 0-.5-.4-1.6-.5-2.5-.2-1.4.4-1.4.3-.1-.6.8-.7 3.1-.9 5-.6 1.9.2 4.4.6 5.5.6zm-38.2.6c-.7.2-1.9.2-2.5 0-.7-.3-.2-.5 1.2-.5s1.9.2 1.3.5zm55.4-.1c-.3.3-1.2.4-1.9.1-.8-.3-.5-.6.6-.6 1.1-.1 1.7.2 1.3.5zm-69.8 5c1.4 1.2-1.9.1-3.5-1.2-1.8-1.4-1.8-1.4.6-.3 1.4.6 2.7 1.3 2.9 1.5zm-84.4-.7c.3.5.1 1.2-.4 1.6-.6.3-.8 1.3-.5 2.3.5 1.5.4 1.5-.6-.1-.6-.9-1.5-1.5-2-1.2-.5.3-1.1.1-1.5-.5-.4-.6.6-1 2.2-1.1 2.5 0 2.6-.1.8-.9-1.6-.7-1.7-.9-.3-.9.9-.1 1.9.3 2.3.8zm30.8.6c-.3.9-.8 1.4-1 1.1-.3-.3-.2-.9.2-1.5.9-1.6 1.5-1.3.8.4zm30.7.3c0 1.2-.3 1.2-1.5.2-.8-.7-1.5-1.3-1.5-1.5 0-.1.7-.2 1.5-.2s1.5.7 1.5 1.5zm3.4-1c.3.5-.1.9-.9.9s-1.2-.4-.9-.9c.3-.4.7-.8.9-.8.2 0 .6.4.9.8zm33.1.2c.3.5.1 1-.4 1-.6 0-1.1-.5-1.1-1 0-.6.2-1 .4-1 .3 0 .8.4 1.1 1zm25.1.2c-1.2-2 .9-1.4 3 .9 1 1.2 2.8 2.5 3.9 3 1.6.6 1.7.8.3.8-.9.1-2-.4-2.4-1-.4-.8-1.2-.3-2 1.2-.7 1.3-1.3 1.8-1.4 1.1 0-.7-.4-1.1-.9-.7-.5.3-1.2.1-1.6-.5-.3-.5-.1-1 .5-1s.8-.5.5-1c-.4-.6-1.2-1-1.8-.9-.7.1-2.1.1-3.2 0-1.8-.1-1.7-.3.5-1.5 1.8-.9 2.9-1 3.9-.2 1.1.8 1.3.8.7-.2zm9.3-.3c.9.6.4.8-1.8.6-1.7-.1-3.4-.5-3.8-.9-1-.9 4-.7 5.6.3zm6.5.6c.7 1.9-.5 1.9-3 0-1.9-1.4-1.9-1.4.2-1.5 1.2 0 2.4.7 2.8 1.5zm16.9-.8c-.7.2-1.9.2-2.5 0-.7-.3-.2-.5 1.2-.5s1.9.2 1.3.5zm6.1.5c-.3.4-.9.8-1.5.8-.5 0-.9-.4-.9-.8 0-.5.7-.9 1.5-.9s1.2.4.9.9zm-313.7.4c1.3.4 2 1 1.7 1.5-.3.5-1.1.6-1.7.2-.7-.4-2.3-.9-3.7-1.1-1.3-.2-2.7-.5-2.9-.8-.6-.6 4-.5 6.6.2zm24.3.4c-.8.5-1.9 1-2.5 1-.5 0-.3-.5.5-1s2-1 2.5-1c.6 0 .3.5-.5 1zm29.5.1c.4.6 2.9.8 6.3.5l5.7-.6-5 2c-6.1 2.4-7.9 2.5-7.1.4.3-.8.2-1.2-.4-.9-.6.3-1 .2-1-.4 0-.5-1.5-1.2-3.2-1.4l-3.3-.4 3.7-.1c2-.1 4 .3 4.3.9zm22.8-.4c-1.3.2-3.3.2-4.5 0-1.3-.2-.3-.4 2.2-.4s3.5.2 2.3.4zm12.7.5c0-.6 1-1.2 2.2-1.2h2.2l-2.2 1.6c-1.6 1.1-3.2 1.4-5 .9-2.5-.7-2.5-.8-.7-1.5 1.2-.4 2.3-.3 2.7.4.6.8.8.7.8-.2zm18.6.9c1.9 1.1 3.8 1.8 4.4 1.4.5-.3 1-.1 1 .4 0 1.4-4 1.4-6 .1-.8-.5-1-1-.5-1 .6 0-.1-.7-1.5-1.5s-2.1-1.4-1.6-1.5c.5 0 2.4.9 4.2 2.1zm7.4-1.7c0 1.1-1.9 1.5-2.5.6-.3-.5.1-1 .9-1 .9 0 1.6.2 1.6.4zm24.7.9c0 .7-.9 1.3-1.9 1.3-1.8 0-1.8-.1-.2-1.3 1-.7 1.8-1.3 1.9-1.3.1 0 .2.6.2 1.3zm26 .9c-.3.8-.6.5-.6-.6-.1-1.1.2-1.7.5-1.3.3.3.4 1.2.1 1.9zm37.3-1.1c0 .5.6.7 1.3.3.9-.6.9-.5-.1.8-.8 1-2.1 1.3-4 .9-2.5-.5-2.5-.6-.4-.9 1.2-.2 2-.8 1.7-1.3-.4-.5-.1-.9.4-.9.6 0 1.1.5 1.1 1.1zm26.4.5c.5 1.2.2 1.5-1 1-.8-.3-2-.6-2.5-.6s-.9-.5-.9-1c0-1.6 3.7-1.1 4.4.6zm92.6-.5c0 1-3 2-4.1 1.3-.5-.3-.7-.9-.5-1.3.6-.9 4.6-.9 4.6 0zm28-.1c0 .5-.4 1-1 1-.5 0-1-.5-1-1 0-.6.5-1 1-1 .6 0 1 .4 1 1zm6.1.1c-1.4.5-2.8.6-3.2.2-.4-.4.6-.9 2.4-1 3-.1 3.1-.1.8.8zm8.3.5c.3.8.2 1.2-.4.9-.6-.3-1-1-1-1.6 0-1.4.7-1.1 1.4.7zm-388.4.9c-.7.8-1.7 1.2-2.2.9-.6-.4-.5-1 .3-1.5 2.2-1.4 3.3-1 1.9.6zm60-1.1c0 1.1-1.9 1.5-2.5.6-.3-.5.1-1 .9-1 .9 0 1.6.2 1.6.4zm5 .7c0 .5.5.7 1 .4.6-.3 1-.2 1 .3 0 1.1-3 2.5-3.8 1.7-.3-.3 0-.5.8-.5 1 0 1-.3 0-1.5-.9-1-.9-1.5-.1-1.5.6 0 1.1.5 1.1 1.1zm60.4.4c.3.9 0 1.5-.9 1.5s-1.2-.6-.9-1.5c.4-.8.7-1.5.9-1.5.2 0 .5.7.9 1.5zm143.7.1c1.2 1.5 1.1 1.6-1.1.9-3.5-1-4.9-2.5-2.3-2.5 1.1 0 2.7.7 3.4 1.6zM12 349c0 .5-.5 1-1.1 1-.5 0-.7-.5-.4-1 .3-.6.8-1 1.1-1 .2 0 .4.4.4 1zm77.3.2c.2.7.2 2.1-.1 3.1-.3 1.4-.7 1.5-1.8.6-1.8-1.5-1.8-4.9 0-4.9.8 0 1.6.6 1.9 1.2zm3 2c.6 2.2.5 2.2-.8.4-1.7-2.2-2-4-.6-3.2.5.3 1.1 1.6 1.4 2.8zm25.7-2.3c0 .5-.9.7-2 .4-1.1-.3-2-.7-2-.9 0-.2.9-.4 2-.4s2 .4 2 .9zm44 0c0 1.5-2.3 2.6-2.8 1.3-.2-.7-.8-1-1.2-.7-.5.3-1.1.2-1.4-.3-.2-.4.9-.9 2.5-1 1.6-.1 2.9.2 2.9.7zm140.3-.2c-.7.2-1.9.2-2.5 0-.7-.3-.2-.5 1.2-.5s1.9.2 1.3.5zm6 1.9c.6-.1.9-.1.5.1s-.4 1.1-.1 1.9c.6 1.6-.5 1.8-2.7.4-1.3-.8-1.3-1 0-1 1.1 0 1.1-.3.2-1.2-.7-.7-1.2-1.7-1.2-2.3 0-.5.5-.2 1.1.7.5.9 1.5 1.6 2.2 1.4zm92.9-.4c1.3 1.6 1.8 1.8 1.5.7-.4-1.3-.1-1.5 1.4-1.2 1 .3 1.9 1 1.9 1.6 0 .6-.3.7-.7.4-.3-.4-1.1-.2-1.8.3-.8.7-1.9.2-3.5-1.5-1.3-1.4-2-2.5-1.6-2.5.4 0 1.7 1 2.8 2.2zm-273.7.8c.3.5.2 1-.4 1-.5 0-1.3-.5-1.6-1-.3-.6-.2-1 .4-1 .5 0 1.3.4 1.6 1zm61 0c.3.5.1 1-.4 1-.6 0-1.1-.5-1.1-1 0-.6.2-1 .4-1 .3 0 .8.4 1.1 1zm141.8.4c.4 1 .1 1.3-.8.9-.8-.3-1.2-.9-.9-1.4.7-1.2 1.1-1.1 1.7.5zm-17.8.6c.3.5.1 1-.4 1-.6 0-1.1-.5-1.1-1 0-.6.2-1 .4-1 .3 0 .8.4 1.1 1zm70.5.6c0 .2-.9.4-2.1.4-1.1 0-1.8-.4-1.4-1 .5-.8 3.5-.3 3.5.6zm-280.4 1.2c-1 .2-2.2 0-2.8-.6-.6-.6 0-.7 1.9-.4 2.1.5 2.3.7.9 1zm89.4-1.4c0 .3-.4.8-1 1.1-.5.3-1 .1-1-.4 0-.6.5-1.1 1-1.1.6 0 1 .2 1 .4zm24.1.5c-.8.5-2 .7-2.8.4-2.1-.8-1.5-1.3 1.5-1.3 2 0 2.3.3 1.3.9z"/><path d="M256 195c0 .5.5 1 1.1 1 .5 0 .7-.5.4-1-.3-.6-.8-1-1.1-1-.2 0-.4.4-.4 1zm55.5 5c.3.5 1.4 1 2.3 1 1.5 0 1.5-.2.2-1-2-1.3-3.3-1.3-2.5 0zm8.1 3.9c-.4.5-.1 1.1.5 1.3.6.2 1.2 2.2 1.3 4.5 0 3.6.2 3.9 1.4 2.2 1-1.5 1-2.4-.2-5.4-1.6-3.6-2.1-4.1-3-2.6zm7.7 11.6c.4.9.7 2.1.7 2.6s.4.9 1 .9c.5 0 .7-.7.4-1.5-.8-2.1 1.3-1.9 2.5.2.6 1 1 1.3 1.1.8 0-1.8-1.4-3.2-3.9-4-2-.6-2.3-.4-1.8 1zm4.8 7.1c0 1.1.3 1.4.6.6.3-.7.2-1.6-.1-1.9-.3-.4-.6.2-.5 1.3zm-43.5-16.1c-.7 2 .6 2.6 2.1 1 1-1 .9-1.4-.2-1.8-.7-.3-1.6.1-1.9.8zm23.2 8.8c1.2 1.5.5 5.8-1.2 6.9-.7.5-.7.8.2.8.8 0 1.2.9 1 2.1-.2 1.5.3 2.3 1.5 2.5 1.8.2 2.3-1.1.7-2.1-1.4-.9-.8-5.5.7-5.5.7 0 1.6 1.8 1.9 4 .6 3.4.8 3.7 2.1 2.5.8-.8 1.7-1.5 2.1-1.5.3 0 .1.5-.6 1.2-1.5 1.5-1.6 3.2-.1 2.3.6-.4.9-.1.8.6-.2.8.5 2.8 1.4 4.6 2.1 4 .7 9.4-2.4 8.8-1.2-.2-1.9.2-1.9 1.1 0 .8.5 1.4 1 1.4.6 0 1-.5 1-1.1 0-.8.4-.8 1.4 0 1.1.9 1.5.9 1.9-.1.4-1 .7-1 1.8.1.8.8.9 1.1.2.7-.6-.3-1.4-.2-1.8.3-.3.6-1.2.8-2 .4-1.1-.4-1.5.3-1.5 2.6 0 1.7.3 3 .8 3 2.2-.4 3.4.4 5.3 3.3l2.1 3.3-.5-2.9-.5-2.8 3.5 3.8c1.9 2.2 3 3 2.5 1.9s-.7-2.6-.5-3.3c.3-.6.1-1.2-.4-1.2-1.2 0-4.5-5.8-5.3-9.4-.4-1.7-1.2-3-1.8-2.9-1.3.3-1.2-1.8.1-2.8.5-.3-.1-2.1-1.2-3.9-1.9-3.1-1.9-6.8 0-3.9.6 1 .9.3.9-1.9 0-2.4.4-3.1 1.3-2.6.6.4 0-.6-1.5-2.3-1.6-1.6-2.8-3.4-2.8-3.9s-.8-1-1.9-1c-1.1 0-1.7.5-1.4 1.3.3.7.9 1.1 1.3.8.4-.3 1 .2 1.4 1 .7 1.8-.9 2-2.3.2-.6-.6-2.2-2.7-3.7-4.5-1.4-1.7-3-3.2-3.6-3.2-.7 0-.7.4 0 1.3zm14.5 33.2c-.3.9-.8 1.4-1 1.1-.3-.3-.2-.9.2-1.5.9-1.6 1.5-1.3.8.4z"/><path d="M307 222.8c0 .6.5 1.4 1 1.7 1.5 1 1.2 2.3-.7 2.8-1.5.4-1.5.5.2.6 1.2.1 2.8 1.5 3.9 3.6 2.1 3.8 3.1 4.3 4 2 .3-.8 1.2-1.5 2.1-1.5.8 0 1.5-.5 1.5-1.1 0-.7-1-.5-2.5.5-2.4 1.6-2.5 1.6-4.5-1.6-1.1-1.8-2-3.8-2-4.4 0-.6-.7-1.7-1.5-2.4-.9-.8-1.5-.9-1.5-.2zm20 9.2c0 .5.5 1 1.1 1 .5 0 .7-.5.4-1-.3-.6-.8-1-1.1-1-.2 0-.4.4-.4 1zm-47.5 2c-.3.5-.1 1 .4 1 .6 0 1.1-.5 1.1-1 0-.6-.2-1-.4-1-.3 0-.8.4-1.1 1zm2.5.9c0 .5.5 1.3 1 1.6.6.3 1 .2 1-.4 0-.5-.4-1.3-1-1.6-.5-.3-1-.2-1 .4zm19.8 4.3c1.7 1.7 4.2 1.9 3.5.2-.3-.8-1.5-1.4-2.6-1.4-1.6 0-1.8.3-.9 1.2zM273 249c0 .5.5 1 1.1 1 .5 0 .7-.5.4-1-.3-.6-.8-1-1.1-1-.2 0-.4.4-.4 1zm65.5 1.9c.5 1.6.4 2.1-.4 1.7-1.3-.8-1.4.3-.2 2.2.6 1 1 .7 1.5-1.3.4-1.7.2-3.2-.5-3.9-.8-.8-.9-.5-.4 1.3zm-4.2 2.6c0 .8.4 1.2.9.9.4-.3.8-.9.8-1.5 0-.5-.4-.9-.8-.9-.5 0-.9.7-.9 1.5zm.9 5.5c.5 1.6 6.8 2.6 6.8 1.1 0-.6-.6-1.1-1.2-1.1-.7 0-2.4-.3-3.7-.7-1.7-.4-2.2-.2-1.9.7zm-33.2 2.6c0 .8-.4 1.2-1 .9-.5-.3-.7 0-.4.8.3.8 0 1.8-.6 2.2-.9.6-.9 1 .1 1.6 2.1 1.3 2.9 1.1 2.2-.6-.3-.9-.2-1.5.3-1.4 2.7.5 3.2-.1 2.1-2.6-1.3-2.8-2.7-3.3-2.7-.9zm27 4.1c0 1.3 1.4 2.8 3 3.1 1.1.3 1-.2-.4-1.7-2-2.2-2.6-2.5-2.6-1.4z"/><path d="M304 267.7c0 .9.3 1.3.7 1 .3-.4 1.2-.2 2 .4 1.6 1.4 1.7-.3.1-1.9-1.7-1.7-2.8-1.5-2.8.5zm7.5.7c-2 2.1-2.6 3.6-1.6 3.6.6 0 1.5-.9 2.1-2.1 1.3-2.4 1-3.2-.5-1.5zm-12.9 2.1c.4.8 1.1 1.5 1.6 1.5.6 0 .5-.6-.2-1.5-.7-.8-1.4-1.5-1.6-1.5-.2 0-.1.7.2 1.5zm-9.6-55.6c0 .7-.5.9-1.2.5-.7-.5-.8-.3-.3.5.5.9 1 1 1.8.2.6-.6.8-1.4.4-1.8-.4-.3-.7-.1-.7.6zm1.7 1.5c-.9 1.3-1.3 2.6-1 3 .3.3 1.2-.6 2-2.1 1.7-3.4 1-4.1-1-.9zm-5.7 1.2c0 .8.5 1.2 1 .9.6-.4.8-1.1.5-1.6-.9-1.4-1.5-1.1-1.5.7zm-86-2.6c0 .5.5 1 1 1 .6 0 1-.5 1-1 0-.6-.4-1-1-1-.5 0-1 .4-1 1zm100.5 35.9c-.3.5-.1 1.2.5 1.6.5.3 1-.1 1-.9 0-1.8-.6-2.1-1.5-.7zm-24 19.1c-.3.6.1.7.9.4 1.8-.7 2.1-1.4.7-1.4-.6 0-1.3.4-1.6 1zm13 5c-.3.5.1 1 1 1s1.3-.5 1-1c-.3-.6-.8-1-1-1-.2 0-.7.4-1 1zm-149 1.2c.2 1-.2 2.4-.9 3-1 .9-.5 1.6 2.2 3 1.9.9 4.8 1.9 6.3 2.2 2.3.3 2.9.1 2.9-1.5 0-1.3-.7-1.9-2.2-1.9-1.9 0-2 .2-.8 1s1 1-.8 1c-1.3 0-2.1-.4-1.7-.9.3-.5 0-1.3-.6-1.7-.8-.5-.9-.3-.4.6.5.9.4 1.1-.4.6-.9-.6-.9-1.1 0-2.2.6-.8.8-1.4.3-1.4-.4 0-.3-.5.4-1.2 1.9-1.9 1.5-2.4-1.7-2.4-2.3 0-2.8.4-2.6 1.8zm2.8.8c.3 1.1.1 1.8-.4 1.4-.5-.3-.9-1.2-.9-2 0-2 .7-1.7 1.3.6zm41.2-2.9c-1 1.5.3 2.5 1.6 1.2.7-.7.7-1.3.1-1.7-.6-.3-1.4-.1-1.7.5zm-12 8.8c-.3.5-.2 1.2.3 1.5.5.3.9-.1.9-.9 0-1.7-.3-1.9-1.2-.6zm70.2 26.5c-.4 1 .1 1.2 1.4.9 2.3-.6 2.4-.9.5-1.6-.8-.3-1.7 0-1.9.7zm12.7 12.7c-.3.6-.2 1.5.3 2s.9.1.9-1.1c0-2.3-.2-2.4-1.2-.9zm84.4 5.6c.7.3 1.6.2 1.9-.1.4-.3-.2-.6-1.3-.5-1.1 0-1.4.3-.6.6zM326 337c-.9.6-1 1-.3 1 .6 0 1.5-.5 1.8-1 .8-1.2.4-1.2-1.5 0zM267.9 76.6c-1.3 1.6-1.1 2.1 1.1 2.4 5.1.7 6.5-.8 2.5-2.6-1.9-.9-2.7-.9-3.6.2zm3.1 1.5c0 .6-.4.7-1 .4-.5-.3-1-1.1-1-1.6 0-.6.5-.7 1-.4.6.3 1 1.1 1 1.6zm36.4.5c.1.8.9 2 1.6 2.7.8.6 1.1.8.7.3-.4-.6.5-1.6 2-2.3 1.6-.7 2.1-1.1 1.3-.9-.8.2-2.5 0-3.7-.5-1.6-.6-2.1-.4-1.9.7zM254.5 81c-.3.5-.1 1 .4 1 .6 0 1.1-.5 1.1-1 0-.6-.2-1-.4-1-.3 0-.8.4-1.1 1zm-3 7c-.3.5.1 1 .9 1s1.8-.5 2.1-1c.3-.6-.1-1-.9-1s-1.8.4-2.1 1zm47.5 0c0 .5.5 1 1.1 1 .5 0 .7-.5.4-1-.3-.6-.8-1-1.1-1-.2 0-.4.4-.4 1zm-42.8 1.3c-1 1.2-.8 1.4 1.3 1.4 1.4 0 2.5-.4 2.5-.9s-.4-.7-.9-.4c-.5.4-1.1.1-1.3-.5-.2-.7-.8-.6-1.6.4zm4.8.9c0 1.9 1.8 4.3 2.5 3.6.9-.9-.4-4.8-1.6-4.8-.5 0-.9.6-.9 1.2zm30.6-.5c-1.1 1.1-.6 2.3.9 2.3 1.2 0 1.3.5.7 1.7-.5 1-.7 2.4-.5 3 .3.7-.2 1.3-1.1 1.3-1.9 0-1.9.2-.5 3.4 1.2 2.6 4.6 4.1 5.2 2.2.2-.6 0-1.9-.5-2.9s-.5-1.7 0-1.7c1.6 0 2.1-3.8.6-4.4-.9-.3-1.3-1.5-1-2.9.3-1.7-.1-2.3-1.4-2.4-1-.1-2.1.1-2.4.4zm39.5.2c1.4.5 3.6 1.4 5 2.2 2.6 1.4 3.1 1.6 5.5 1.8.8 0 1.3.5 1 .9-.6 1 3.9 5.2 5.5 5.2.8 0 .7.5-.1 1.6-1.1 1.2-1 1.8.3 3.1.8.9 2.3 1.3 3.1 1 1.9-.7 2.2-2.9.4-2.6-.7.1-2 .1-2.8 0-1.2-.1-1.2-.4.2-1.5 1.6-1.2 1.5-1.5-1.7-3.1-1.8-1.1-3.2-2.2-3-2.5.7-1.2-4.4-5.3-6.7-5.6-1.3-.1-2.3-.3-2.3-.4 0-.1-1.6-.3-3.5-.5-3-.4-3.1-.3-.9.4zm-65.1.6c0 1.5 1.8 4 2.4 3.4.3-.3-.1-1.4-.9-2.5-.8-1-1.4-1.5-1.5-.9zm36.2.7c.2.5.8.9 1.3.9s1.1-.4 1.3-.9c.1-.5-.4-.9-1.3-.9s-1.4.4-1.3.9zM254.5 93c-.3.5.1 1.3 1 1.6 2.2.9 2.9-.1 1.1-1.5-1-.8-1.6-.9-2.1-.1zm44.5.8c0 1.5 3.9 2.2 4.7.9.3-.7.3-.9-.2-.5-.4.4-1.6.3-2.6-.3-1.1-.5-1.9-.6-1.9-.1zm-36 2.1c0 .5.7 1.5 1.7 2.2 1.5 1.3 1.5 1.2.4-.9-1.2-2.3-2.1-2.8-2.1-1.3zm43.8-.2c.6.2 1 .9.7 1.3-.3.5-.2 1.1.3 1.4.4.2.9-.4.9-1.5.1-1.2-.4-1.9-1.5-1.8-1.1 0-1.2.2-.4.6zM260 96.9c0 .5.5 1.3 1 1.6.6.3 1 .2 1-.4 0-.5-.4-1.3-1-1.6-.5-.3-1-.2-1 .4zm43.3.6c-.7.7-1.4 2.5-1.7 3.9-.3 1.4-.7 3-1 3.5-.7 1.1 1.4 2 3.2 1.4.6-.3 1.2-1.5 1.2-2.7 0-1.2-.6-2.8-1.2-3.5-.7-.8-.8-1.1-.3-.8.6.3 1.2-.3 1.2-1.4.2-2.2.2-2.2-1.4-.4zm12.6 1.3c.6 1.2 1.7 2.4 2.4 2.8.7.5.5 0-.3-1.1-.8-1-1.4-2.1-1.2-2.4.2-.3-.2-.7-.8-.9-.9-.3-.9.1-.1 1.6zm11.2-.2c0 1.1.3 1.4.6.6.3-.7.2-1.6-.1-1.9-.3-.4-.6.2-.5 1.3zm-74.3 2.9c-1 1.3-1.8 3-1.8 3.7 0 .7.9-.2 2.1-2.1 2.4-3.9 2.2-4.9-.3-1.6zm26.7-.6c.5 1 .2 1.1-1.3.7-2.3-.8-4.1 1.2-2.2 2.4.7.4 1 1.2.7 1.8-.4.5 1.3.9 4.3.9 2.8 0 5-.2 5-.6 0-.3-1.7-1.9-3.7-3.5s-3.3-2.4-2.8-1.7z"/><path d="M343 101.7c0 .5.3 1.3.7 1.7 1 1 1.2 4.9.3 6.6-.7 1.1-1.1.9-2.1-1.3s-1.5-2.5-2.7-1.4c-1.3 1-1.5.9-.9-.6.3-.9.2-1.7-.3-1.7-1.4 0-1.2 2.4.2 3.8 1.8 1.8-.5 3.8-2.3 2-.8-.8-3.7-1.3-7.1-1.3-3.2.1-5.8-.2-5.8-.6 0-.4-.9-.5-2-.2s-1.8.9-1.5 1.3c.7 1.2-6.6 2.1-9.7 1.3-1.5-.5-2.7-1.3-2.5-1.8.1-.6.5-.9.8-.8.3.1.5-.8.4-2-.1-1.2-.3-2.9-.4-3.7-.1-1.1-.4-1-1.3.4-.8 1.5-.8 2.1.1 2.4.8.3.5 1.2-1.1 3-1.3 1.4-1.8 2.2-1.2 1.9.6-.4 1.6.4 2.2 1.8.9 1.9 2.1 2.5 6.4 3 2.9.4 5.9.5 6.7.3.8-.2 1.7.7 2 2 .6 2.4 2 3 3 1.4.4-.6 1.5-.3 2.9.9 2.2 1.8 2.2 4.6 0 3.3-.6-.4-.9-.1-.6.7.4.9 1.8 1.3 4.4 1.2 3.2-.2 3.6 0 2.1.8-1.8 1-1.8 1.1 0 2.5 2.1 1.5 10.3 1.9 10.3.4 0-.6 1.3-1 3-1 1.6 0 4.8-.9 7-2.1 2.2-1.2 4.6-1.9 5.4-1.6 1 .4 1.2 0 .8-1.5-.4-1.7-.2-2 1.3-1.5.9.4 2.4.2 3.1-.4.8-.6 1.4-.8 1.4-.3s.4.3.9-.5c.8-1.2 1.2-1.2 2.5-.2 1.1.9 1.6 1 1.6.2 0-.6-.5-1.1-1-1.1-.7 0-.7-.6 0-2 .8-1.4 2.1-2 4.5-2 1.9 0 3.5-.5 3.5-1 0-.6-.7-1-1.5-1s-1.5-.4-1.5-.9c0-.6-1.7-.8-3.7-.5-2.7.3-3.2.2-1.9-.4 1.7-.7 1.3-1-2.2-1.9-3.3-.9-4.4-.8-5.3.3-.9 1.1-.8 1.4.1 1.4.8 0 1.1.2.8.5-.8.9-3.8-.6-3.2-1.6.3-.5.1-.9-.5-.9-.5 0-1.2.6-1.4 1.2-.3.7-.6.3-.6-.8-.1-1.2-.8-2.8-1.7-3.5-1.4-1.1-1.9-1-3.5 1-1.1 1.3-1.9 1.7-1.9 1s-.3-.9-.6-.6c-.4.4-.1 1.3.6 2.2 1 1.3.9 1.5-.8 1.5-1.1 0-2.3.6-2.5 1.2-.4 1-.6 1-.6.1-.1-.6.3-1.4.8-1.7.5-.3.7-1.6.3-2.9-.6-2.4-4.2-7.6-4.2-6zm-124.8 1c-.7.2-1.7 1.4-2.3 2.5-1 1.8-.8 1.8 2-.3 3.9-2.8 4-3.7.3-2.2z"/><path d="M323.5 103c.3.5.8 1 1.1 1 .2 0 .4-.5.4-1 0-.6-.5-1-1.1-1-.5 0-.7.4-.4 1zm-101.4 1.5c-4.2 1.4-5.3 3.5-1.8 3.5 2.1 0 6.6-3.5 5.6-4.4-.2-.2-1.9.2-3.8.9zm15.4-.5c-.3.5-.1 1 .4 1 .6 0 1.1-.5 1.1-1 0-.6-.2-1-.4-1-.3 0-.8.4-1.1 1zm73.4.1c-.7 3.6-.8 5.2-.2 4.3.5-.6 1.4-1.3 2.2-1.5 1-.4 1-.7-.3-1.8-.9-.7-1.6-1.2-1.7-1zm-65.4 2c-.4.6-.5 1.2-.2 1.5.2.3.7-.2 1-1.1.7-1.7.1-2-.8-.4zm26.5.1c0 .4.4.8.9.8.6 0 1.2-.4 1.5-.8.3-.5-.1-.9-.9-.9s-1.5.4-1.5.9zm-20.3 1.4c-1 1.1.3 2.4 2.3 2.4 1.3 0 1.7-.5 1.4-1.5-.6-1.5-2.6-2-3.7-.9zm61.3 1.1c0 1.8 1.8 2.5 3.6 1.5 1.5-.8 1.5-1 0-1.5-.9-.4-1.6-.1-1.6.6 0 .8-.4.6-1-.3-.6-.9-1-1-1-.3zm-117.2 1.7c-2.9.7-3.8 1.4-3.7 3 0 2.1.1 2.1.9.1.5-1.1.9-1.5.9-.8.1.7 1.8 2.4 3.8 3.8 2.4 1.6 3.1 2.5 2 2.5-2.1 0-2.2.7-.2 2.6 2.1 2.1 4.9 1.3 5.3-1.4.2-1.3 1-2.6 1.7-2.8 2-.8-1.3-7.6-3.4-7.2-.9.1-2 0-2.6-.3-.5-.3-2.7-.1-4.7.5zm8.2 5c-1.3 1.3-3.5-.7-2.5-2.4.5-.8 1.1-.8 2.1.1 1 .8 1.2 1.5.4 2.3zm62-4.7c-1.4.3-3.2 1-4 1.7-1.8 1.5-8.9 3.6-12.2 3.6-1.3 0-2.9.5-3.4 1-.7.7-2.5.8-5.5.1-2.8-.6-4.7-.6-5.5 0-.8.7-1.4.6-1.9-.1-.3-.6-1.1-.8-1.6-.4-.5.3-.7.8-.5 1.2.2.4-1.2.7-3.2.8-2.1 0-3.1-.1-2.4-.3 1.8-.7 1.4-2.1-.8-2.8-1.1-.4-1.8-1.2-1.4-1.8.3-.7-.3-.3-1.3.8-1 1.2-2.7 2.4-3.7 2.8-1.7.7-1.8 1-.5 2.1 1 1.1 2.7 1.2 6.2.7 2.6-.5 5-.4 5.3.1.8 1.2 4.8 1 6.2-.4.9-.9 1.2-.6 1.2 1.5s.5 2.7 2.3 2.7c2.2.1 13.2.9 17.2 1.3 1.5.2 2-.4 2-2.3s.5-2.5 2-2.3c1.1.1 4.6-.5 7.9-1.4 4.1-1.2 6.3-1.3 7.5-.6.9.6 4.8.8 8.6.6 8.1-.5 9.5-.8 9.5-2.3 0-1.4-4.1-2.9-9.6-3.4-2.5-.3-5.1-.8-5.7-1.3-.7-.5-3.3-.8-5.9-.8-2.6.1-4.4-.3-4.2-.7.3-.4.4-.7.2-.7-.2.1-1.4.4-2.8.6zm18.5 4.3c-.3.5-1 1-1.6 1-.5 0-.9-.5-.9-1 0-.6.7-1 1.6-1 .8 0 1.2.4.9 1zm95.5 1c0 .5 1.3 1 2.9 1 1.7 0 3.3.4 3.6 1 .3.5 1.1 1 1.7 1 .7 0 .2-.9-1-2-2.2-2.1-7.2-2.8-7.2-1zm-1.5 3c.3.5.8 1 1.1 1 .2 0 .4-.5.4-1 0-.6-.5-1-1.1-1-.5 0-.7.4-.4 1zm-264.6.5c-.3.2-1.9.5-3.6.7-1.8.1-3.1.7-3 1.2.1.6-.3 1-1 1.1-.6 0-1.5.3-1.9.7-.3.4.4.5 1.6.3 1.3-.3 2.6-.8 2.9-1.2.3-.5 1.5-1 2.6-1.1 1.8-.3 4.7-2.2 3.4-2.2-.3 0-.8.2-1 .5zm285.4 3.7c-3.5 1.6-10.1 1.7-12.6.1-.4-.2-1.4.1-2.2.7-.8.6-1.8.9-2.3.6-2-1.2-2 3.5-.1 5.3 1.1 1 2.1 2.8 2.2 4 .2 2.4 1 2.7 2.9.8 2.8-2.9 5.3-3.5 9.8-2.7 2.5.5 6.4.9 8.8 1h4.2v-12l-3.4.3c-1.9.1-5.1 1-7.3 1.9zm-192.6.4c.3.7.9 1.4 1.4 1.4 1.4 0 1-1.7-.5-2.3-1-.4-1.3-.1-.9.9zm170.9 1.9c-.3.8-.1 1.5.3 1.5.5 0 1.1-.7 1.5-1.5.3-.8.1-1.5-.3-1.5-.5 0-1.1.7-1.5 1.5zm-185.5 8.9c.2.2 4.2.6 8.9.9 5.2.4 7.7.3 6.5-.3-1.9-.8-16.3-1.4-15.4-.6zm73.1 1.2c-1.2.8-2.2 2.1-2.1 2.7 0 .9.2.9.5 0 .7-1.6 3.4-.5 2.8 1.2-.7 1.7.1 2.1 5.5 3l4.3.7-3.3-4.6c-3.8-5-4.5-5.3-7.7-3zm-53.8.9c2.3 1.8 3.3 1.9 4.1.5.3-.5 0-.7-.8-.4-.8.3-1.8.1-2.2-.5-.3-.6-1.2-1.1-1.8-1.1-.7 0-.3.7.7 1.5zm12.4 8.2c.7.3 1.6.2 1.9-.1.4-.3-.2-.6-1.3-.5-1.1 0-1.4.3-.6.6zm47.7.4c-.4.6-.4 1.3-.1 1.6.8.8 3.6-.5 3.6-1.7 0-1.3-2.7-1.3-3.5.1zm82.5 1.6c0 .5.4 1.4.9 2.2.8 1.2 1.2 1.2 2.5-.2 2.2-2.2 2-2.7-.9-2.7-1.4 0-2.5.3-2.5.7zm-29.6 5.4c-1.3 1.5-1.4 1.9-.3 1.9.8 0 2.2-.7 3.2-1.4 1.4-1.1 1.5-1.5.3-1.9-.8-.3-2.2.3-3.2 1.4zM122.5 169c.3.5.8 1 1.1 1 .2 0 .4-.5.4-1 0-.6-.5-1-1.1-1-.5 0-.7.4-.4 1zm199 4c2.2 2.4 2.5 2.5 2.5.4 0-.8-.4-1.2-1-.9-.5.3-1 .1-1-.4 0-.6-.5-1.1-1.2-1.1-.6 0-.3.9.7 2zm-217 0c-.3.5-.1 1 .4 1 .6 0 1.1-.5 1.1-1 0-.6-.2-1-.4-1-.3 0-.8.4-1.1 1zm-5.1 5.5c-.4.9-1.3 1.3-2.3 1-1.1-.3-2.7.5-4.1 2-1.3 1.4-2 2.5-1.5 2.5s0 .7-1.1 1.6c-1.9 1.5-1.9 1.6.1.9C95 185.1 104 177 101 177c-.6 0-1.3.7-1.6 1.5zm-3.4 3c-.7.8-1.7 1.5-2.2 1.5-.6 0-.5-.7.2-1.5s1.7-1.5 2.2-1.5c.6 0 .5.7-.2 1.5zm269.2-.9c1 1 2 1.5 2.4 1.2.3-.4-.5-1.2-1.8-1.8-2.2-1.2-2.2-1.2-.6.6zM406 185c.9.5.9.9.1 1.4-.6.4-.9 1.2-.5 1.7.4.6 1.4.3 2.5-.7 2.6-2.3 2.4-3.2-.7-3.2-1.6 0-2.1.3-1.4.8zm-320.5 2.3c-1.4 1.1-1.5 1.6-.5 2.2 1.1.7 2.9-.9 3-2.8 0-1-.3-.9-2.5.6zm293.5 8.6c0 .6.5 1.3 1 1.6.6.3 1-.1 1-.9 0-.9-.4-1.6-1-1.6-.5 0-1 .4-1 .9zM236 352.1c0 .5-.4.7-1 .4-.6-.3-.7.1-.4.9.7 1.8 4.4 2.2 4.4.5 0-.5-.4-.7-1-.4-.6.3-.7-.1-.4-.9.3-.9.1-1.6-.5-1.6s-1.1.5-1.1 1.1z"/></svg>