<svg width="27" height="24" fill="none" xmlns="http://www.w3.org/2000/svg"><path d="M3.82 9h19.869v11c0 .265-.117.52-.324.707a1.165 1.165 0 01-.78.293H4.923a1.16 1.16 0 01-.78-.293.955.955 0 01-.324-.707V9zm1.103-5h17.662c.293 0 .573.105.78.293A.955.955 0 0123.69 5v4H3.819V5c0-.265.117-.52.324-.707A1.16 1.16 0 014.923 4v0zM18.17 3v3M9.339 3v3" stroke="#000" stroke-width="1.333" stroke-linecap="round" stroke-linejoin="round"/><ellipse cx="8.235" cy="12" rx="1.104" ry="1" fill="#000"/><ellipse cx="8.235" cy="16" rx="1.104" ry="1" fill="#000"/><ellipse cx="13.754" cy="12" rx="1.104" ry="1" fill="#000"/><ellipse cx="13.754" cy="16" rx="1.104" ry="1" fill="#000"/><ellipse cx="19.273" cy="12" rx="1.104" ry="1" fill="#000"/><ellipse cx="19.273" cy="16" rx="1.104" ry="1" fill="#000"/></svg>