<svg version="1.1" id="Capa_1" xmlns="http://www.w3.org/2000/svg" x="0" y="0" width="314.069" height="314.069" xml:space="preserve"><path d="M293.003 78.531C249.646 3.436 153.619-22.295 78.529 21.061 3.434 64.411-22.297 160.443 21.067 235.542c43.35 75.087 139.375 100.822 214.465 57.467 75.096-43.361 100.839-139.388 57.471-214.478zm-73.168 187.271c-60.067 34.685-136.894 14.114-171.576-45.961C13.577 159.762 34.161 82.943 94.23 48.261c60.071-34.69 136.894-14.106 171.578 45.971 34.685 60.076 14.098 136.886-45.973 171.57zm-51.703-144.768a15.62 15.62 0 00-11.097-4.599 15.64 15.64 0 00-11.101 4.599l-44.409 44.406c-6.133 6.128-6.133 16.078 0 22.206v-.009c6.129 6.132 16.076 6.132 22.201 0l33.308-33.299 33.298 33.299c6.135 6.132 16.077 6.132 22.201 0v.009c6.135-6.128 6.135-16.078 0-22.206l-44.401-44.406z" id="_x34_99._Up"/></svg>